<?xml version="1.0" encoding="UTF-8"?>
<svg width="109px" height="13px" viewBox="0 0 109 13" version="1.1" xmlns="http://www.w3.org/2000/svg" xmlns:xlink="http://www.w3.org/1999/xlink">
    <title>zigzag copy 2</title>
    <g id="Page-1" stroke="none" stroke-width="1" fill="none" fill-rule="evenodd" stroke-linecap="round">
        <g id="Desktop-Copy" transform="translate(-550.000000, -1031.000000)" stroke="#F8AE00">
            <g id="Group-Copy-5" transform="translate(79.000000, 994.000000)">
                <g id="Page-1" transform="translate(472.000000, 36.000000)">
                    <path d="M13.406,13.6914 L6.705,1.0004 M0,13.6914 L6.705,1.0004 M13.406,13.6914 L20.11,1.0004 M26.814,13.6914 L20.11,1.0004 M40.221,13.6914 L33.518,1.0004 M26.814,13.6914 L33.518,1.0004 M40.221,13.6914 L46.925,1.0004 M53.627,13.6914 L46.925,1.0004 M67.037,13.6914 L60.333,1.0004 M53.627,13.6914 L60.333,1.0004 M67.037,13.6914 L73.737,1.0004 M80.443,13.6914 L73.737,1.0004 M93.849,13.6914 L87.143,1.0004 M80.443,13.6914 L87.143,1.0004 M93.849,13.6914 L100.553,1.0004 M107.256,13.6914 L100.553,1.0004"></path>
                </g>
            </g>
        </g>
    </g>
</svg>