<?xml version="1.0" encoding="UTF-8"?>
<svg width="39px" height="53px" viewBox="0 0 39 53" version="1.1" xmlns="http://www.w3.org/2000/svg" xmlns:xlink="http://www.w3.org/1999/xlink">
    <title>Group</title>
    <g id="Page-1" stroke="none" stroke-width="1" fill="none" fill-rule="evenodd">
        <g id="Desktop-Copy" transform="translate(-95.000000, -400.000000)">
            <g id="Group" transform="translate(96.000000, 401.000000)">
                <path d="M23.1208163,0.195229907 L13.1313,3.52095421 L13.1424242,3.87866916 L0.198228105,2.79599159 C0.338973203,3.9020243 0.47802549,31.9887252 0.47802549,31.9887252 L0.601358824,44.8447766 L13.6517183,45.4002953 C13.6517183,45.4002953 15.990215,46.1679168 18.6486529,47.7179355 C21.3070908,49.2677159 25.2972869,50.7848467 26.2948359,50.9049589 C27.292385,51.0253093 27.588385,50.9778841 27.5117248,50.5400944 C27.4350647,50.1023047 27.4449797,38.8115243 27.4449797,38.8115243 L27.4435288,18.1672486 C27.4435288,18.1672486 27.4500582,6.48300561 27.9066333,6.05451028 C28.3629667,5.62649159 35.5999732,1.40731402 35.5999732,1.40731402 L23.1208163,0.195229907 Z" id="Fill-1" fill="#B17F48"></path>
                <path d="M35.5998765,1.40740935 C35.5998765,1.40740935 32.5767588,3.22696542 31.206066,3.91546542 C29.8353732,4.60396542 27.7788503,5.5176757 27.7270987,6.47047009 C27.6753471,7.42302617 27.444883,17.6904701 27.444883,17.6904701 L27.4277131,44.1637598 L27.4277131,50.3600215 C27.4277131,50.3600215 27.3982098,51.0380355 28.1471575,50.5733159 C28.8956216,50.1085963 35.4985497,45.2690776 35.4985497,45.2690776 L36.8518307,43.9685776 C36.8518307,43.9685776 36.3493078,41.310143 36.324883,40.0060682 C36.3004582,38.7022318 36.0707196,32.1086944 36.0707196,32.1086944 L35.8499288,17.4521523 L35.7580333,2.65142804 C35.7580333,2.65142804 35.7053144,1.72699346 35.5998765,1.40740935" id="Fill-3" fill="#946C3E"></path>
                <path d="M27.4480268,17.0425794 C28.5599614,16.9920561 32.9228176,14.9179766 35.8499288,12.6334626 L35.8499288,10.4378411 C35.8499288,10.4378411 32.7811052,12.8040981 30.5127392,13.7430701 C28.2443732,14.6820421 27.4480268,14.8471963 27.4480268,14.8471963 L27.4480268,17.0425794 Z" id="Fill-5" fill="#F9B200"></path>
                <path d="M27.4458987,41.301778 C29.5875458,41.0620304 36.1619379,35.9057874 36.1619379,35.9057874 L36.2226373,38.1385864 C36.2226373,38.1385864 29.2903366,43.035778 27.4463824,43.4962079 L27.4458987,41.301778 Z" id="Fill-7" fill="#F9B200"></path>
                <path d="M36.441566,40.5620397 C36.1506444,38.7012547 36.2149712,36.8211659 36.1283961,34.9482266 C35.6459451,24.411007 35.9078471,13.8683061 35.8442458,3.32727336 C35.8442458,3.32727336 35.7946706,1.14380607 35.3925072,1.1831285 L22.9723569,0.195301402 C20.4909386,1.15000234 16.3171935,2.48577336 13.8016771,3.32560514 C13.2844026,3.4995771 13.0790889,3.39710047 13.1424484,3.87874065 C13.5475137,7.01953037 13.4928601,10.6786612 13.5625072,13.8194509 C13.7970824,24.3552407 13.6517425,34.8977033 13.6517425,45.4003668 C14.0019124,45.4873528 14.217383,45.50475 14.3989974,45.5898294 C18.0794092,47.3030958 21.5373373,49.4708341 25.4818275,50.6543201 C26.6481739,51.0056005 27.4423438,51.0568388 28.5223569,50.3533248 C31.4526118,48.4436846 34.2394614,46.3707967 36.8916118,44.1082079 C36.5114549,42.8639509 36.6756575,41.6890444 36.441566,40.5620397" id="Stroke-9" stroke="#212348" stroke-width="0.5" stroke-linecap="round" stroke-linejoin="round"></path>
                <path d="M27.4462407,43.4963271 C27.4469607,45.3747477 27.4479207,47.2531682 27.4493607,49.1315888 C27.4500807,49.6751916 27.3440007,50.2333318 27.5945607,50.7569159" id="Stroke-11" stroke="#212348" stroke-width="0.5" stroke-linecap="round" stroke-linejoin="round"></path>
                <path d="M27.4480024,17.0425794 C27.4448824,19.920028 27.4448824,23.7950748 27.4448824,26.6734766 C27.4448824,31.5489813 27.4444024,36.3448879 27.4458424,41.2213458" id="Stroke-13" stroke="#212348" stroke-width="0.5" stroke-linecap="round" stroke-linejoin="round"></path>
                <path d="M13.1424967,3.87866916 C14.0919216,4.07528131 17.6918039,4.95181402 18.6044706,5.26305701 C18.6044706,5.26305701 20.1325948,5.61624393 21.8894902,5.80832804 C23.6463856,6.00041215 25.9539281,6.33095888 27.7103399,6.26828131 C27.9398366,8.80565047 27.4731046,11.3046505 27.4547255,13.8179495 C27.4520654,14.1611271 27.4498889,14.5040664 27.4479542,14.8472439" id="Stroke-15" stroke="#212348" stroke-width="0.5" stroke-linecap="round" stroke-linejoin="round"></path>
                <path d="M35.3925314,1.40740935 C33.8501392,2.65428785 32.0642242,3.49602617 30.2942699,4.36135794 C29.4152176,4.79175981 28.3601131,5.51171776 27.7103157,6.26813832" id="Stroke-17" stroke="#212348" stroke-width="0.5" stroke-linecap="round" stroke-linejoin="round"></path>
                <path d="M35.8499771,12.6334864 C35.8499771,12.6334864 30.1921209,16.7447061 27.4480752,17.0426033 L27.4480752,14.8469818 C30.1921209,14.5493229 35.8499771,10.437865 35.8499771,10.437865" id="Stroke-19" stroke="#212348" stroke-width="0.5" stroke-linecap="round" stroke-linejoin="round"></path>
                <path d="M36.070768,38.0796028 C36.070768,38.0796028 30.0402516,43.1393271 27.2962059,43.4372243 L27.2962059,41.2416028 C30.0402516,40.9439439 36.0098268,35.8470421 36.0098268,35.8470421" id="Stroke-21" stroke="#212348" stroke-width="0.5" stroke-linecap="round" stroke-linejoin="round"></path>
                <polyline id="Stroke-23" stroke="#212348" stroke-width="0.5" stroke-linecap="round" stroke-linejoin="round" points="27.7120569 16.491136 28.3400895 14.965664 29.1364359 16.1613042 29.6805536 14.6122388 30.627802 15.4265706 31.1416908 13.9668743 32.119168 14.5924584 32.5624425 12.9738042 33.378619 13.7430939 33.9038739 12.2357341 34.6482268 12.8050752 35.0109719 11.6730659 35.8443183 12.288879"></polyline>
                <polyline id="Stroke-25" stroke="#212348" stroke-width="0.5" stroke-linecap="round" stroke-linejoin="round" points="27.6551301 42.8330411 28.3399928 41.5203869 29.3931627 42.1626533 29.7863784 40.8371299 30.7384634 41.3223449 31.1761758 40.0025411 32.0941627 40.4813215 32.5671824 39.0051813 33.5799667 39.3774336 33.904019 38.0340364 34.7588882 38.4689664 35.1093 37.164415 36.0708163 37.6646439"></polyline>
                <polyline id="Stroke-27" stroke="#212348" stroke-width="0.5" stroke-linecap="round" stroke-linejoin="round" points="22.6900686 5.89960374 22.6900686 41.2211551 13.6516699 45.4002953 0.601310458 44.8447766 0.198179739 2.79599159 13.1426176 3.87866916"></polyline>
                <polygon id="Fill-29" fill="#FEFEFE" points="13.3940242 11.9050206 13.1901614 39.8153664 22.5809065 42.1182308 26.1217824 38.3449458 25.7769327 19.3214692 25.577181 12.9216841"></polygon>
                <path d="M13.3765399,12.6868935 C13.3765399,12.6868935 13.1475268,8.80588879 13.6836641,8.5899729 C14.2195595,8.37405701 15.5445464,7.62454766 19.2626837,7.83164579 C22.9808209,8.03898224 24.9899451,9.23414579 24.9899451,9.23414579 C24.9899451,9.23414579 25.4559516,8.9321972 25.499481,10.3935617 C25.5432523,11.8549262 25.6109647,13.9671364 25.6109647,13.9671364 C25.6109647,13.9671364 17.1635987,12.2109729 13.3765399,12.6868935" id="Fill-31" fill="#7F7C89"></path>
                <path d="M13.2062673,40.8098902 C13.2062673,40.8098902 13.1559667,46.656778 13.8916137,47.0588201 C14.6275026,47.4606238 18.8810516,47.8371659 20.4514961,47.8169089 C22.0221824,47.7964136 25.5100974,47.9753902 25.6793784,47.0490491 C25.8489013,46.1224696 26.1100778,41.4035397 26.1158817,39.4967593 C26.1214438,37.5902173 26.1158817,36.9548621 26.1158817,36.9548621 C26.1158817,36.9548621 20.4391627,41.3739883 13.1704765,38.5735164 L13.2062673,40.8098902 Z" id="Fill-33" fill="#7F7C89"></path>
                <path d="M22.5809549,8.65491449 C21.7335824,8.4618771 20.7732752,8.32698925 19.8555301,8.17017617 C18.8797458,8.00359206 17.8940464,8.14133972 16.975334,8.1921014 C16.4466935,8.22093785 15.7971379,8.46473692 16.6553928,8.64919486 C17.9760268,8.93255467 19.3629222,9.20209206 21.1365039,9.04170421 C21.9947588,8.94470888 20.4129484,8.42803598 19.3716281,8.46330701 C18.6330791,8.48856869 18.3702098,8.6766014 19.6352229,8.79719019" id="Stroke-35" stroke="#212348" stroke-width="0.5" stroke-linecap="round" stroke-linejoin="round"></path>
                <path d="M15.0372353,8.50992196 C15.6485817,9.06949206 17.4470719,9.17459019 18.9161895,9.30495 C20.0868889,9.40837991 21.4227582,9.46891262 22.7431503,9.43530981 C24.246366,9.39670234 24.1433464,9.08998738 22.5808824,8.65481916" id="Stroke-37" stroke="#212348" stroke-width="0.5" stroke-linecap="round" stroke-linejoin="round"></path>
                <path d="M13.4962699,8.67655374 C13.3772895,9.44465187 12.6774333,45.7726192 13.6546686,46.8846098 C14.6316621,47.9968388 24.045381,48.0476005 25.4900739,47.3867453 C26.934283,46.7258902 25.4431588,10.651493 25.4895902,9.76614252 C25.5004725,9.56333411 25.2576752,9.40413785 24.9899693,9.23421729 C23.6354791,8.37698832 21.357198,7.91560514 18.2467797,7.83743692 C16.0971523,7.78333879 14.6437536,8.1243715 13.4962699,8.67655374 C15.5274007,9.42320327 16.0492699,9.77496028 19.0421588,9.90365187 C20.322649,9.95846495 23.5164987,10.1438762 25.4895902,9.76614252" id="Stroke-39" stroke="#212348" stroke-width="0.5" stroke-linecap="round" stroke-linejoin="round"></path>
            </g>
        </g>
    </g>
</svg>