<?xml version="1.0" encoding="UTF-8"?>
<svg width="68px" height="74px" viewBox="0 0 68 74" version="1.1" xmlns="http://www.w3.org/2000/svg" xmlns:xlink="http://www.w3.org/1999/xlink">
    <title>Group</title>
    <g id="Page-1" stroke="none" stroke-width="1" fill="none" fill-rule="evenodd">
        <g id="Desktop-Copy" transform="translate(-480.000000, -387.000000)">
            <g id="Group" transform="translate(481.000000, 388.000000)">
                <path d="M10.7155572,16.0181698 L2.46615361,18.8716223 C2.46615361,18.8716223 -0.125141566,19.0705274 0.0255451807,20.2868849 C0.176231928,21.5032425 0.467864458,32.7694324 0.467864458,32.7694324 L0.576009036,56.8174324 L0.571039157,65.7347732 C0.571039157,65.7347732 3.07605723,66.5790637 5.92419578,68.283533 C8.77253313,69.9880022 13.0472259,71.6564715 14.11575,71.7888067 C15.1844729,71.9209408 15.5015512,71.8690525 15.4194488,71.3875777 C15.3373464,70.9061028 15.3478825,58.4883151 15.3478825,58.4883151 L15.346491,35.7835777 C15.346491,35.7835777 15.3534488,22.9333877 15.8424849,22.4623709 C16.3315211,21.9913542 24.0845331,17.3513765 24.0845331,17.3513765 L10.7155572,16.0181698 Z" id="Fill-1" fill="#B17F48"></path>
                <path d="M24.0845331,17.3513564 C24.0845331,17.3513564 20.8455633,19.3524737 19.3770633,20.1096804 C17.9089608,20.8668872 15.7057139,21.8718704 15.65025,22.9196916 C15.5947861,23.9671106 15.3478825,35.2594458 15.3478825,35.2594458 L15.3293946,64.3745966 L15.3293946,71.1892559 C15.3293946,71.1892559 15.2979849,71.9352 16.1001235,71.4241609 C16.902262,70.9129207 23.975991,65.5903508 23.975991,65.5903508 L25.4256054,64.1600045 C25.4256054,64.1600045 24.8872681,61.236362 24.8612259,59.8021944 C24.8351837,58.3682279 24.5888765,51.1167419 24.5888765,51.1167419 L24.3523102,34.9973899 L24.2541054,18.7193564 C24.2541054,18.7193564 24.19725,17.7029095 24.0845331,17.3513564" id="Fill-3" fill="#946C3E"></path>
                <path d="M0.43973494,28.7255866 L0.43973494,31.1402011 C0.43973494,31.1402011 6.61212651,33.0409609 9.56383735,33.6658324 C12.5159458,34.290905 14.1601807,34.6024358 15.3513614,34.5469274 C16.5423434,34.4912179 21.2164157,32.2101453 24.3522108,29.6975866 L24.3522108,27.2829721 C24.3522108,27.2829721 21.0645361,29.8856313 18.6342651,30.9181676 C16.2043916,31.9507039 16.2336145,32.655419 12.7409819,31.9155084 C9.2483494,31.1757989 0.43973494,28.7255866 0.43973494,28.7255866" id="Fill-5" fill="#F9B200"></path>
                <path d="M0.738703012,55.9181564 L9.63578133,59.7651285 C9.63578133,59.7651285 13.0540645,61.4907151 15.3487572,61.2270503 C17.64345,60.9635866 24.6865645,55.2926816 24.6865645,55.2926816 L24.7515705,57.7481229 C24.7515705,57.7481229 18.9234922,62.6384916 16.9482633,63.144905 C14.9730343,63.6511173 14.071697,63.6344246 12.7125343,63.1905587 C11.3535705,62.7466927 0.738703012,58.0807709 0.738703012,58.0807709 L0.738703012,55.9181564 Z" id="Fill-7" fill="#F9B200"></path>
                <path d="M24.986288,60.4136514 C24.6743783,58.3670816 24.7431614,56.2993944 24.6507217,54.2395508 C24.1336554,42.6505676 24.4143542,31.055752 24.3461675,19.4629475 C24.3461675,19.4629475 24.2930892,17.0614056 23.8623,17.1044447 L10.5561434,16.0182101 C7.89805301,17.0682436 3.42675181,18.5372045 0.731685542,19.4611374 C0.177643373,19.6521989 -0.0424228916,19.5395732 0.0253662651,20.0693162 C0.459336145,23.5235061 0.400890361,27.5478637 0.475438554,31.0020536 C0.726914458,42.5894279 0.571059036,54.1840425 0.571059036,65.7348134 C0.946185542,65.8303441 1.17678795,65.8494503 1.37160723,65.9431709 C5.31451084,67.827238 9.01925783,70.2114838 13.2446494,71.512914 C14.4942759,71.8994615 15.3451193,71.9557743 16.5021072,71.182076 C19.6414807,69.0820089 22.626788,66.802143 25.4683663,64.3137184 C25.0610349,62.9451151 25.2367699,61.6531374 24.986288,60.4136514" id="Stroke-9" stroke="#212348" stroke-width="0.5" stroke-linecap="round" stroke-linejoin="round"></path>
                <path d="M15.3496939,63.6406592 C15.3504939,65.7065363 15.3514939,67.7726145 15.3528939,69.8384916 C15.3538939,70.4362123 15.2386939,71.0502235 15.5106939,71.6260223" id="Stroke-11" stroke="#212348" stroke-width="0.5" stroke-linecap="round" stroke-linejoin="round"></path>
                <path d="M15.3513426,34.5468872 C15.3479426,37.7114682 15.3479426,41.9733453 15.3479426,45.1389318 C15.3479426,50.5011218 15.3475426,55.7756246 15.3487426,61.138619" id="Stroke-13" stroke="#212348" stroke-width="0.5" stroke-linecap="round" stroke-linejoin="round"></path>
                <path d="M0.0254656627,20.0692961 C1.0427006,20.2854972 4.8995259,21.2494525 5.87700181,21.5917542 C5.87700181,21.5917542 7.51408012,21.9801117 9.39627289,22.191486 C11.2782669,22.4028603 13.7504837,22.7660782 15.6324777,22.6972961 C15.8781886,25.4877989 15.3782187,28.2364693 15.3583392,31.0004246 C15.355556,31.3777207 15.3533693,31.7550168 15.3511825,32.132514" id="Stroke-15" stroke="#212348" stroke-width="0.5" stroke-linecap="round" stroke-linejoin="round"></path>
                <path d="M23.8622404,17.3513564 C22.2098548,18.7227754 20.2964512,19.6485184 18.4003428,20.6000045 C17.45865,21.0734346 16.3283006,21.8652335 15.6325175,22.6972559" id="Stroke-17" stroke="#212348" stroke-width="0.5" stroke-linecap="round" stroke-linejoin="round"></path>
                <path d="M0.43973494,28.7255866 C0.43973494,28.7255866 12.4113795,32.4597318 15.3513614,32.1321117 C18.2911446,31.8046927 24.3522108,27.2829721 24.3522108,27.2829721" id="Stroke-19" stroke="#212348" stroke-width="0.5" stroke-linecap="round" stroke-linejoin="round"></path>
                <path d="M0.43973494,31.140181 C0.43973494,31.140181 12.4113795,34.8743263 15.3513614,34.5469073 C18.2911446,34.2194883 24.3522108,29.6977676 24.3522108,29.6977676" id="Stroke-21" stroke="#212348" stroke-width="0.5" stroke-linecap="round" stroke-linejoin="round"></path>
                <path d="M9.57403554,42.063848 C9.59749337,42.1113117 9.65454759,42.3488313 9.70365,42.5857475 C9.78913193,43.0006525 9.86725843,43.4181721 9.95870422,43.8322726 C10.0439873,44.2246525 10.1745958,44.6063732 10.1980536,45.0164514 C10.2113729,45.2541721 10.0823548,45.5618816 9.96566205,45.7660156 L9.95910181,45.7760715 L9.88276446,45.8983508 C9.74996928,46.1244067 9.62711386,46.3046078 9.45316807,46.4940603 C9.38776446,46.5664626 9.30665602,46.608295 9.20427651,46.6213676 C8.99931867,46.6485184 8.7963488,46.6551553 8.59119217,46.6432894 C8.55063795,46.6404737 8.50789699,46.6376581 8.46992711,46.6400715 C8.37609578,46.6463061 7.99043313,46.6131218 7.89560783,46.6163397" id="Stroke-23" stroke="#212348" stroke-width="0.5" stroke-linecap="round"></path>
                <path d="M12.8650301,44.0703151 C12.8751687,44.3625385 12.8833193,44.3349855 12.8477349,44.4775777 C12.8210964,44.577533 12.6819398,44.6662257 12.5964578,44.7110749 C12.2320663,44.8983151 11.8706566,45.0877676 11.4883735,45.2371978 C11.0025181,45.4294659 10.7126747,45.5189631 10.3880422,45.6512983 L9.98289759,45.7914771" id="Stroke-25" stroke="#212348" stroke-width="0.5" stroke-linecap="round" stroke-linejoin="bevel"></path>
                <path d="M10.0339482,39.1086503 C10.4422735,39.1128737 10.7975205,39.1663709 11.2068398,39.2180581 C11.363888,39.2383709 11.5652675,39.2922704 11.7241048,39.3433542 C11.7692313,39.3578346 11.8147554,39.3690972 11.8610747,39.4040916 C11.957888,39.3308849 12.0260747,39.2329408 12.119906,39.1627508 C12.2324241,39.0798905 12.3429542,39.0642034 12.4660084,39.1189073 C12.5898578,39.1728067 12.7041651,39.2446056 12.7850747,39.3554212 C12.8602193,39.4585944 12.8598217,39.5852983 12.8548518,39.7035553 C12.8455084,39.8803374 12.787659,40.0408291 12.6550627,40.165924 C12.5554663,40.258438 12.4634241,40.3606056 12.3580627,40.4446726 C12.3159181,40.4798682 12.3131349,40.5178793 12.3232735,40.5462369 C12.4503036,40.9372089 12.723647,42.1103263 12.8649904,44.0702145" id="Stroke-27" stroke="#212348" stroke-width="0.5" stroke-linecap="round"></path>
                <path d="M4.25761627,39.8513564 C4.12740542,39.7045408 3.95942349,39.5766302 3.85783916,39.4042726 C3.75804398,39.2311106 3.72186325,39.0778592 3.8562488,38.9065073 C4.00733313,38.7110212 4.15821867,38.5362503 4.42400783,38.4930101 C4.55938735,38.4710883 4.64904398,38.4926078 4.72597771,38.5977922 C4.81861627,38.7234905 4.90966446,38.8067531 5.09613434,38.811781 C5.34721265,38.8184179 5.60008012,38.8397363 5.85095964,38.8578369 C6.29467048,38.8882056 6.73738735,38.9238034 7.17831506,38.9501497 C7.63971867,38.9783061 9.57399578,39.0732335 10.0340078,39.1086302" id="Stroke-29" stroke="#212348" stroke-width="0.5" stroke-linecap="round"></path>
                <path d="M9.57403554,42.063848 C9.51161386,41.9518257 9.45654759,41.8279374 9.35098735,41.750105 C9.22057771,41.6529654 9.07327048,41.6413006 8.92695723,41.6093229 C8.53453554,41.5232447 8.13813795,41.5483844 7.74293313,41.5497922 C7.60337892,41.5499933 7.49940904,41.6187754 7.40219819,41.7287866 C7.16046325,42.0017028 7.08293313,42.3456134 6.97518614,42.6770547 C6.87419819,42.9899933 6.77658976,43.3033341 6.67778855,43.6162726 C6.57898735,43.9304179 6.46388494,44.2387307 6.3873488,44.558105 C6.34739096,44.7326749 6.34957771,44.9213229 6.41736687,45.1023285 C6.50324639,45.3370324 6.60940301,45.5940603 6.74060783,45.8140827 C6.77301145,45.8699933 6.80839699,45.9240939 6.8449753,45.9741721 C6.93304157,46.0861944 7.10380663,46.2863061 7.20260783,46.3575017 C7.23401747,46.3898816 7.30061386,46.4224626 7.3523006,46.4526302 C7.52525241,46.5549989 7.70198133,46.6191553 7.89560783,46.6163397" id="Stroke-31" stroke="#212348" stroke-width="0.5"></path>
                <path d="M3.8998247,41.1600872 C3.83521627,41.3406905 3.45293313,43.0316849 3.40939699,43.2165117 C3.35731265,43.4377408 3.31337892,43.6615844 3.30264398,43.8908581 C3.29071627,44.1263665 3.35771024,44.2961095 3.56286687,44.4328693 C3.99385482,44.7214726 4.57811386,45.0414503 4.87849337,45.167752 C5.46394518,45.4115061 6.38078855,45.7479754 6.71039096,45.8322436" id="Stroke-33" stroke="#212348" stroke-width="0.5" stroke-linecap="round"></path>
                <path d="M4.25978494,39.8513564 C4.19758494,40.0589095 4.12638494,40.2640492 4.07538494,40.4752223 C4.01958494,40.7044961 3.95258494,40.930552 3.89978494,41.1600268" id="Stroke-35" stroke="#212348" stroke-width="0.5" stroke-linecap="round"></path>
                <path d="M8.25526807,46.1547352 C8.59580422,46.1714279 8.58487048,46.2142659 8.69500301,46.1386458 C8.92341867,45.9857966 9.13573193,45.7362101 9.32498494,45.5507799 C9.39595482,45.4805899 9.54445482,45.341819 9.53988253,45.2127017 C9.53153313,44.9763888 9.57089458,44.8637631 9.56175,44.6212156 C9.55558735,44.4548916 9.52914759,44.4279419 9.36116566,44.4001877 C9.05084639,44.347495 8.73834036,44.2948022 8.42563554,44.2658413 C7.96920181,44.2224 8.21789458,44.2217966 7.70599699,44.2316514 C7.57658133,44.2342659 7.44716566,44.210333 7.3137741,44.2342659 C7.21000301,44.2535732 7.16805723,44.3042547 7.14996687,44.3941542 C7.09768373,44.6455508 7.06269578,44.8975508 7.05474398,45.1557855 C7.05295482,45.2452827 7.09947289,45.3060201 7.15811747,45.3581095 C7.41158133,45.5813497 7.6682259,45.8015732 7.92367771,46.0217966 C7.96800904,46.0598078 8.01731024,46.1464894 8.25526807,46.1547352 Z" id="Stroke-37" stroke="#212348" stroke-width="0.5" stroke-linecap="round"></path>
                <path d="M10.1680952,41.7430257 C10.2549687,41.8033609 10.2661012,41.9049251 10.2599386,42.0046793 C10.2547699,42.1054391 10.1955289,42.1800536 10.083806,42.1917184 C9.9529988,42.2045899 9.85757711,42.149886 9.78680602,42.0151374 C9.70211928,42.1122771 9.62856506,42.192724 9.66494458,42.3467799 L9.61226386,42.1209251 C9.64228193,42.0821095 9.75718554,41.9725006 9.76076386,41.9294615 C9.79257108,41.7102436 9.99275783,41.6219531 10.1680952,41.7430257" id="Fill-39" fill="#212348"></path>
                <path d="M7.28264277,41.855317 L7.25004036,41.901117 C7.22956446,41.877517 7.15203434,41.810717 7.10770301,41.798517 C7.10074518,41.892717 7.02182349,41.946717 6.95304036,41.965117 C6.85702229,41.990717 6.76438373,41.991917 6.6791006,41.935917 C6.59998012,41.881317 6.59202831,41.777517 6.60713675,41.690917 C6.66518494,41.379917 7.12281145,41.488717 7.11525723,41.694317 C7.11187771,41.775317 7.18483554,41.757917 7.28264277,41.855317" id="Fill-41" fill="#212348"></path>
                <path d="M0.576028916,55.8534369 C0.576028916,55.8534369 12.2486855,61.488543 15.1884687,61.1609229 C18.1284506,60.8335039 24.5236916,55.227962 24.5236916,55.227962" id="Stroke-43" stroke="#212348" stroke-width="0.5" stroke-linecap="round" stroke-linejoin="round"></path>
                <path d="M0.576028916,58.0162324 C0.576028916,58.0162324 12.2486855,63.9031374 15.1884687,63.5757184 C18.1284506,63.2480983 24.5888964,57.6833832 24.5888964,57.6833832" id="Stroke-45" stroke="#212348" stroke-width="0.5" stroke-linecap="round" stroke-linejoin="round"></path>
                <polyline id="Stroke-47" stroke="#212348" stroke-width="0.5" stroke-linecap="round" stroke-linejoin="round" points="0.467884337 30.6305095 1.71273976 29.7178391 2.38188434 31.2583978 3.43987229 30.257638 4.33584217 31.786733 5.3988 30.6504201 6.12778193 32.3872693 7.33685422 31.1751352 7.97041446 32.8936827 9.0948 31.7195598 9.90608313 33.3484089 11.175788 31.995895 12.0206675 33.8715151 12.8872157 32.2676045 13.7919325 34.0501073 14.6298542 32.4649006 15.6339687 33.9404983 16.3066916 32.2627777 17.1601193 33.5776827 17.7429867 31.8740179 18.7576373 32.7695933 19.3081012 31.1640737 20.3553542 31.8520961 20.8302759 30.0720067 21.7045771 30.9181073 22.2675651 29.2602972 23.0649325 29.8863754 23.4533783 28.6414592 24.3461675 29.3188223"></polyline>
                <polyline id="Stroke-49" stroke="#212348" stroke-width="0.5" stroke-linecap="round" stroke-linejoin="round" points="0.738703012 57.7793765 1.98355843 56.866505 2.5787512 58.4770525 3.65582349 57.6834436 4.35200422 59.2909743 5.49209458 58.4937453 6.19801627 59.965924 7.29894398 59.2746838 7.91441386 60.7325832 9.17716084 60.0936335 9.90594398 61.7154436 11.2175946 60.8635106 11.9785825 62.5181028 12.8870765 61.4724939 13.8404982 62.9275777 14.6299139 61.6697899 15.573197 62.9112872 16.3067512 61.467667 17.4353114 62.1741922 17.8561608 60.7160916 18.8763777 61.249857 19.3453355 59.7981922 20.3287753 60.3247173 20.835703 58.7010972 21.9205283 59.1107732 22.2676247 57.6333654 23.1834741 58.1114212 23.5587994 56.6768514 24.588956 57.2269073"></polyline>
                <path d="M34.452159,58.060438 C34.0615265,53.8323486 34.3388458,48.6789184 34.2911349,44.4468067 C34.2495867,40.9680804 34.3368578,37.4587844 34.1485988,34.0170637 C33.8836048,29.2025162 33.9774361,24.3817341 33.6842133,19.5659799 C33.3005386,13.3273207 33.5899843,7.04783464 33.5899843,0.784639106" id="Stroke-51" stroke="#212348" stroke-width="0.6776" stroke-linecap="round" stroke-linejoin="round"></path>
                <path d="M25.0835584,60.4916246 C26.570944,60.1179486 33.1610042,58.2447419 34.4521789,58.0605184" id="Stroke-53" stroke="#212348" stroke-width="0.6776" stroke-linecap="round" stroke-linejoin="round"></path>
                <path d="M65.9145976,60.6237989 C58.3301639,60.2306145 50.7793265,60.9349274 43.1607,61.6147039 C42.9360614,58.3091397 42.6951217,55.2941899 42.5392663,52.2742123 C42.350212,48.5601788 41.8603807,44.869676 41.806706,41.1421676 C41.784441,39.5227709 41.7146639,37.8949274 41.6731157,36.2713073 C41.6083084,33.7774525 41.453447,31.2815866 41.5192482,28.7919553 C41.691206,22.1745922 41.1125133,15.5755307 41.0699711,8.96118436 C41.0498928,6.02205587 40.9000012,3.04089385 40.7745614,0.139575419 C31.824206,0.749765363 22.9609229,0.341296089 14.0014229,1.12444693 C14.7298084,5.52650279 13.5513506,11.7880894 14.0014229,16.0181899" id="Stroke-55" stroke="#212348" stroke-width="0.6776" stroke-linecap="round" stroke-linejoin="round"></path>
                <path d="M42.4969627,62.9475457 C38.4816976,62.8131457 29.4408904,63.4601457 25.4256253,63.2829457" id="Stroke-57" stroke="#212348" stroke-width="0.6776" stroke-linecap="round" stroke-linejoin="round"></path>
                <path d="M42.4969627,62.9476492 C46.0204084,64.3604983 50.8592819,67.065124 53.9901072,69.3214592 C53.9901072,69.3214592 32.1005711,70.4356492 17.9819386,70.1707777" id="Stroke-59" stroke="#212348" stroke-width="0.6776" stroke-linecap="round" stroke-linejoin="round"></path>
                <path d="M32.0953428,26.8753676 C31.0248307,27.469267 27.6600235,28.2196358 26.5410054,28.6373564 C26.5654572,28.9955464 26.4507524,29.7010659 27.0409753,29.4512782 C28.9179994,28.6546525 31.0176741,28.4521274 32.9414151,27.2973117 C31.9283548,26.9471665 31.7462584,26.0298704 30.9449151,26.4158145" id="Stroke-61" stroke="#212348" stroke-width="0.6776" stroke-linecap="round" stroke-linejoin="round"></path>
            </g>
        </g>
    </g>
</svg>