<?xml version="1.0" encoding="UTF-8"?>
<svg width="90px" height="55px" viewBox="0 0 90 55" version="1.1" xmlns="http://www.w3.org/2000/svg" xmlns:xlink="http://www.w3.org/1999/xlink">
    <title>Group</title>
    <defs>
        <polygon id="path-1" points="0.140114359 0.110640173 78.4242745 0.110640173 78.4242745 3.56828194 0.140114359 3.56828194"></polygon>
    </defs>
    <g id="Page-1" stroke="none" stroke-width="1" fill="none" fill-rule="evenodd">
        <g id="Desktop-Copy" transform="translate(-327.000000, -396.000000)">
            <g id="Group" transform="translate(327.000000, 397.000000)">
                <path d="M3.22408514,16.198311 C3.14999865,16.4012273 3.08433108,16.570126 3.23755541,16.7844608 L3.01409324,16.4702141 C3.03718514,16.391474 3.14903649,16.1521612 3.12979324,16.0829366 C3.04151486,15.7270599 3.30057703,15.465148 3.65176622,15.5431744 C3.82639865,15.5817119 3.90697973,15.7306282 3.95941757,15.8876326 C4.01426081,16.0474916 3.96735541,16.1975974 3.79945811,16.2849013 C3.60149324,16.3864784 3.41772027,16.3619762 3.22408514,16.198311" id="Fill-1" fill="#FEFEFE"></path>
                <polygon id="Fill-3" fill="#FEFEFE" points="62.9533081 13.0690943 66.4036216 23.4554115 21.594527 39.6006978 14.1659135 13.7601515 49.7692811 1.64773744"></polygon>
                <g id="Group-57" transform="translate(0.000000, 0.022123)">
                    <path d="M45.5582822,5.20557621 C47.3914416,4.57351454 49.2635686,3.79658062 49.2635686,3.79658062 C52.6094876,6.40285374 55.5185849,8.85759383 60.2863389,12.4774969 C58.7593876,12.878096 51.1121227,15.3730388 49.1264605,16.0610035 C47.9769173,12.7620079 46.7237011,8.17938238 45.5582822,5.20557621 M22.2708308,49.062378 C23.4855605,48.1267744 26.2077578,47.3201048 27.5800416,46.8464749 L42.0786227,41.8278053 C50.2464173,40.5819991 63.2510011,33.6933119 70.8318768,32.6282987 L84.6011389,27.4823604 C86.8213281,27.2325806 87.0957849,26.6181225 88.9229308,25.9870123 C88.9229308,25.9870123 84.7945335,13.8976731 83.2853822,10.8372767 C81.9717903,8.17533833 78.2256119,6.89908282 74.5260984,8.15821057 C69.2438281,9.96043084 64.0880822,11.4493559 64.0880822,11.4493559 C60.4893551,7.36605198 53.285647,3.18307401 49.5077173,0.0796202643 C39.5019524,1.72745286 15.6066551,11.2162282 10.3159545,12.7353648 C10.3034578,17.7473736 20.57502,43.7106687 22.2708308,49.062378" id="Fill-4" fill="#202446"></path>
                    <path d="M45.5582822,5.20557621 C47.3914416,4.57351454 49.2635686,3.79658062 49.2635686,3.79658062 C52.6094876,6.40285374 55.5185849,8.85759383 60.2863389,12.4774969 C58.7593876,12.878096 51.1121227,15.3730388 49.1264605,16.0610035 C47.9769173,12.7620079 46.7237011,8.17938238 45.5582822,5.20557621 Z M22.2708308,49.062378 C23.4855605,48.1267744 26.2077578,47.3201048 27.5800416,46.8464749 L42.0786227,41.8278053 C50.2464173,40.5819991 63.2510011,33.6933119 70.8318768,32.6282987 L84.6011389,27.4823604 C86.8213281,27.2325806 87.0957849,26.6181225 88.9229308,25.9870123 C88.9229308,25.9870123 84.7945335,13.8976731 83.2853822,10.8372767 C81.9717903,8.17533833 78.2256119,6.89908282 74.5260984,8.15821057 C69.2438281,9.96043084 64.0880822,11.4493559 64.0880822,11.4493559 C60.4893551,7.36605198 53.285647,3.18307401 49.5077173,0.0796202643 C39.5019524,1.72745286 15.6066551,11.2162282 10.3159545,12.7353648 C10.3034578,17.7473736 20.57502,43.7106687 22.2708308,49.062378 Z" id="Stroke-6" stroke="#202348" stroke-width="0.68544" stroke-linecap="round" stroke-linejoin="round"></path>
                    <path d="M41.9485384,42.4508987 C42.84816,46.5663172 40.3831005,50.5851542 36.4428059,51.4275066 C32.5022708,52.2700969 28.5788141,49.6169604 27.679433,45.5017797 C26.7795708,41.3863612 29.2448708,37.3675242 33.1849249,36.5249339 C37.12546,35.6825815 41.0491573,38.3354802 41.9485384,42.4508987" id="Fill-8" fill="#FEFEFE"></path>
                    <path d="M41.9485384,42.4508987 C42.84816,46.5663172 40.3831005,50.5851542 36.4428059,51.4275066 C32.5022708,52.2700969 28.5788141,49.6169604 27.679433,45.5017797 C26.7795708,41.3863612 29.2448708,37.3675242 33.1849249,36.5249339 C37.12546,35.6825815 41.0491573,38.3354802 41.9485384,42.4508987 Z" id="Stroke-10" stroke="#202348" stroke-width="0.96" stroke-linecap="round" stroke-linejoin="round"></path>
                    <path d="M84.8107941,28.6646987 C85.7101751,32.7801172 83.2453562,36.7989542 79.3048211,37.6413066 C75.3645265,38.4838969 71.4410697,35.8307604 70.5414481,31.7155797 C69.6415859,27.6001612 72.1068859,23.5813242 76.04694,22.7387339 C79.9874751,21.8963815 83.9111724,24.5492802 84.8107941,28.6646987" id="Fill-12" fill="#FEFEFE"></path>
                    <path d="M84.8107941,28.6646987 C85.7101751,32.7801172 83.2453562,36.7989542 79.3048211,37.6413066 C75.3645265,38.4838969 71.4410697,35.8307604 70.5414481,31.7155797 C69.6415859,27.6001612 72.1068859,23.5813242 76.04694,22.7387339 C79.9874751,21.8963815 83.9111724,24.5492802 84.8107941,28.6646987 Z" id="Stroke-14" stroke="#202348" stroke-width="0.96" stroke-linecap="round" stroke-linejoin="round"></path>
                    <path d="M79.905547,29.8562194 C80.1571524,31.0066335 79.4360119,32.1370652 78.2970524,32.3806599 C77.1564092,32.6244925 76.0292362,31.8891885 75.7778714,30.7387744 C75.5260254,29.586933 76.2452416,28.4567392 77.3858849,28.2131445 C78.5250849,27.9693119 79.6537011,28.704378 79.905547,29.8562194 Z" id="Stroke-16" stroke="#202348" stroke-width="0.96" stroke-linecap="round" stroke-linejoin="round"></path>
                    <path d="M36.9364192,43.4340555 C37.1877841,44.5844696 36.4697705,45.7141877 35.3279246,45.9582581 C34.1901678,46.201615 33.0615516,45.4665489 32.8099462,44.3161348 C32.5581003,43.1642934 33.2792408,42.0338617 34.416757,41.7907427 C35.5583624,41.5464344 36.6845732,42.2819762 36.9364192,43.4340555 Z" id="Stroke-18" stroke="#202348" stroke-width="0.96" stroke-linecap="round" stroke-linejoin="round"></path>
                    <polygon id="Fill-20" fill="#F8B100" points="37.28477 3.36289163 50.3718592 39.8369181 53.80317 38.2604511 40.6419943 2.29097974"></polygon>
                    <path d="M13.0582965,11.2249586 L26.1451451,47.698985 L27.7093803,47.1996634 C26.6235803,45.0211084 27.5191127,41.2030467 27.7377641,41.0976634 L16.4155208,10.1530467 L13.0582965,11.2249586 Z" id="Fill-22" fill="#F8B100"></path>
                    <polyline id="Stroke-24" stroke="#202446" stroke-width="0.5" stroke-linecap="round" stroke-linejoin="round" points="15.7820092 10.9227251 14.5016119 13.581333 16.9996254 14.8459322 16.1365659 17.6213419 18.6769146 18.435148 17.6938254 21.8109806 20.4872227 22.5441436 18.8931605 25.6778088 21.7991308 26.562267 20.3072984 29.2365753 22.9260632 30.0146987 21.8397822 33.7361789 24.5925281 34.23217 23.2474254 37.661289 26.1259741 38.9294564 24.5463443 41.0587692 26.8245038 41.9560731 25.7083957 44.8123639 27.2870632 45.8164784"></polyline>
                    <polyline id="Stroke-26" stroke="#202446" stroke-width="0.5" stroke-linecap="round" stroke-linejoin="round" points="40.1101832 3.11315947 39.1470589 5.71205815 41.6433886 7.16482467 40.1453022 10.0596529 43.37504 11.6946396 41.8379859 14.6646396 45.1569643 16.2503841 43.9311697 19.8495912 46.7462157 21.1175207 45.7992076 24.6693885 48.6626022 26.2132652 47.2886346 29.3600141 50.0586995 30.48997 49.0065751 33.9776088 51.7097697 35.0312035 50.4156616 37.7775912 53.0644941 38.1489304"></polyline>
                    <path d="M35.8669038,22.5071048 C35.8736389,22.4649991 35.8806146,22.417422 35.8863876,22.3667524 C35.9376227,21.9621093 35.9563849,21.3231489 35.8072497,21.0065233 C35.5147524,20.3911137 35.0738416,19.8872722 34.6933065,19.3370432 C34.2913632,18.7577921 33.9081822,18.1649815 33.5158605,17.5809727 C33.2909551,17.2474573 33.0530605,16.9184617 32.9864308,16.8604176" id="Stroke-28" stroke="#FEFEFE" stroke-width="0.5" stroke-linecap="round"></path>
                    <path d="M39.40831,17.8903903 C39.6062749,18.3326194 39.6021857,18.2852802 39.6351397,18.5269718 C39.6570289,18.6963463 39.4922586,18.9199586 39.3840154,19.0424696 C38.9298749,19.556778 38.4800641,20.0732273 37.9730046,20.5425753 C37.328837,21.1391921 36.9288181,21.4574828 36.5016181,21.8630775 C36.4063641,21.9541877 36.2473668,22.0726546 35.9413992,22.3728661" id="Stroke-30" stroke="#FEFEFE" stroke-width="0.5" stroke-linecap="round"></path>
                    <path d="M31.8681578,12.0354819 C32.5118443,11.7859401 33.1035741,11.6465392 33.779493,11.472407 C34.0380741,11.403896 34.3885416,11.3613145 34.6697335,11.3408564 C34.7483903,11.335385 34.8265659,11.3242044 34.9227822,11.3484687 C35.0295822,11.1757639 35.0757659,10.9826009 35.1791984,10.8165568 C35.3042795,10.6193498 35.4683281,10.5258608 35.6956389,10.5334731 C35.9241524,10.5387066 36.1483362,10.5779577 36.3443768,10.6976141 C36.5267065,10.8094203 36.6051227,11.0042485 36.6712714,11.1888476 C36.7679686,11.4659841 36.7754254,11.74883 36.6450524,12.0235877 C36.5461903,12.2281692 36.4677741,12.4434555 36.3530362,12.6387595 C36.3078146,12.7177374 36.3275389,12.7776846 36.3609741,12.8147947 C36.8042903,13.3362396 37.9648984,14.9676581 39.4083822,17.8903189" id="Stroke-32" stroke="#FEFEFE" stroke-width="0.5" stroke-linecap="round"></path>
                    <path d="M23.2535592,16.7764678 C22.95577,16.632785 22.6163673,16.5416749 22.3464808,16.3373313 C22.0823673,16.1351286 21.9298646,15.922459 22.0340186,15.5734811 C22.1497186,15.18097 22.2779268,14.8184326 22.6685646,14.5862564 C22.8677322,14.4682652 23.0219186,14.4449524 23.2085781,14.5588996 C23.4322808,14.6942564 23.6275997,14.7651463 23.9232241,14.6566705 C24.3222808,14.5106088 24.732643,14.3854811 25.1398781,14.2560714 C25.8545241,14.0267498 26.572297,13.8057542 27.2850186,13.5700097 C28.0239592,13.3266529 31.122843,12.2663974 31.8680376,12.0354106" id="Stroke-34" stroke="#FEFEFE" stroke-width="0.5" stroke-linecap="round"></path>
                    <path d="M33.1861997,24.8996617 C33.33317,24.8356705 33.9600186,24.6463137 34.1036214,24.5778026 C34.1618322,24.5504458 34.2306268,24.5283225 34.2960538,24.5073885 C34.6260754,24.3979612 34.940943,24.2609392 35.2461889,24.0929921 C35.4008565,24.0085427 35.4985159,23.8931683 35.5574484,23.7406837 C35.7113943,23.3419877 35.7967862,22.9254502 35.8670241,22.5070097" id="Stroke-36" stroke="#FEFEFE" stroke-width="0.5" stroke-linecap="round"></path>
                    <path d="M32.986527,16.8603463 C32.8186297,16.7271304 32.6557838,16.5727427 32.4405,16.5175533 C32.1751838,16.4492802 31.9365676,16.5232626 31.6866459,16.5653683 C31.0162595,16.6778881 30.4091351,16.9638264 29.7887811,17.2121789 C29.5696486,17.2997207 29.4501,17.471474 29.3649486,17.6996062 C29.1551973,18.2698176 29.2458811,18.8471656 29.2848486,19.4226106 C29.3216514,19.9664167 29.3630243,20.5083198 29.4029541,21.0509366 C29.4436054,21.5949806 29.4549108,22.1402141 29.5335676,22.6785489 C29.577827,22.9718617 29.7005027,23.2597031 29.9198757,23.4961612 C30.2010676,23.8027956 30.5260378,24.1303639 30.870973,24.3858529 C30.9566054,24.4517471 31.0460865,24.5128837 31.135327,24.568311 C31.342673,24.6841612 31.7364378,24.8863639 31.9360865,24.9341789 C32.0058432,24.9658176 32.1306838,24.9731921 32.2307486,24.9869894 C32.5663027,25.0362317 32.8835757,25.0248132 33.1861757,24.8996855" id="Stroke-38" stroke="#FEFEFE" stroke-width="0.5" stroke-linecap="round"></path>
                    <path d="M23.5070168,19.0099031 C23.5180816,19.3277181 23.9715005,22.1635507 24.0181654,22.4742291 C24.0742114,22.8467577 24.1442086,23.217859 24.2704924,23.5770661 C24.39846,23.9462643 24.6082114,24.1658326 25.0178519,24.2488546 C25.8744168,24.4217974 26.9919681,24.5490661 27.5425654,24.5557269 C28.6132114,24.5657181 30.266687,24.509815 30.8336411,24.4351189" id="Stroke-40" stroke="#FEFEFE" stroke-width="0.5" stroke-linecap="round"></path>
                    <path d="M23.2535592,16.7764678 C23.2859592,17.1337718 23.3046792,17.4941683 23.3543592,17.8488555 C23.4097992,18.236133 23.4460392,18.6246 23.5065192,19.0099744" id="Stroke-42" stroke="#FEFEFE" stroke-width="0.5" stroke-linecap="round"></path>
                    <path d="M33.46667,23.96903 C34.0093295,23.7796731 34.0187105,23.8524661 34.1452349,23.6690564 C34.4086268,23.2901048 34.5863862,22.774607 34.7679943,22.3716291 C34.8363078,22.2196203 34.9830376,21.9134617 34.8949997,21.7183956 C34.7347997,21.3606159 34.7271024,21.1645982 34.5611295,20.7958758 C34.4475943,20.5444308 34.3893835,20.5196907 34.1081916,20.581541 C33.5876619,20.6942987 33.0652078,20.80777 32.5545403,20.9588273 C31.8100673,21.1767304 32.1987808,21.0211533 31.4021105,21.3551445 C31.200297,21.4398317 30.9821268,21.4833648 30.7872889,21.6037348 C30.63647,21.6976996 30.6023132,21.8018934 30.6299754,21.9512855 C30.7043024,22.369726 30.8065322,22.7803163 30.9549457,23.1804396 C31.0078646,23.3191269 31.1185132,23.3835938 31.2435943,23.4266511 C31.7807214,23.611726 32.3212159,23.7901401 32.8600268,23.96903 C32.9531159,23.9997172 33.0846916,24.1022458 33.46667,23.96903 Z" id="Stroke-44" stroke="#FEFEFE" stroke-width="0.5" stroke-linecap="round"></path>
                    <path d="M33.0821419,16.9239806 C33.1054743,16.8454784 33.2173257,16.6059278 33.1980824,16.5367031 C33.1095635,16.1808264 33.3688662,15.9186767 33.7200554,15.996941 C33.8946878,16.0354784 33.9750284,16.1846326 34.0274662,16.341637 C34.08255,16.5012581 34.0356446,16.6513639 33.8677473,16.7389057 C33.6697824,16.840007 33.4857689,16.8157427 33.2921338,16.6518396 C33.2182878,16.8547559 33.1526203,17.0241304 33.3056041,17.2379894 L33.0821419,16.9239806 Z" id="Fill-46" fill="#FEFEFE"></path>
                    <path d="M28.8933449,17.8274458 C28.9385665,17.9544767 29.04248,17.8819216 29.2572827,17.9716044 L29.2346719,18.0624767 C29.1882476,18.0391639 29.0241989,17.9842123 28.9469854,17.9930141 C28.994853,18.1426441 28.9048908,18.2751463 28.8081935,18.3469877 C28.671807,18.4468996 28.5289259,18.5073225 28.3595854,18.4725912 C28.2008286,18.4373841 28.1236151,18.281807 28.0928259,18.1393137 C27.9872286,17.6231022 28.7781259,17.5046352 28.8933449,17.8274458" id="Fill-48" fill="#FEFEFE"></path>
                    <g id="Group-52" transform="translate(6.975676, 50.193833)">
                        <mask id="mask-2" fill="white">
                            <use xlink:href="#path-1"></use>
                        </mask>
                        <g id="Clip-51"></g>
                        <path d="M0.718855405,1.30137621 C20.7339932,2.5010326 40.7772743,3.2292 60.8277716,3.47445991 C66.499477,3.54392247 72.171423,3.57389604 77.8433689,3.56747313 C78.6171878,3.56652159 78.6186311,2.37709427 77.8433689,2.37804581 C57.7916689,2.40040705 37.7397284,1.95056564 17.7101581,1.01829251 C12.0442257,0.754477533 6.38045811,0.451411454 0.718855405,0.111948899 C-0.0542418919,0.0657991189 -0.0513554054,1.25522643 0.718855405,1.30137621" id="Fill-50" fill="#202446" mask="url(#mask-2)"></path>
                    </g>
                    <path d="M16.6316465,46.7319093 C11.4104735,44.8849665 6.11232757,43.2675833 0.74683027,41.882852 C-0.00269405405,41.6894511 -0.322372432,42.8362969 0.427151892,43.0296978 C5.79240865,44.414667 11.0907951,46.0320502 16.3119681,47.8787551 C17.0420086,48.1370987 17.3563951,46.9883498 16.6316465,46.7319093" id="Fill-53" fill="#202446"></path>
                    <path d="M15.1668027,43.9039982 C10.7637081,41.4409322 6.68245676,38.4937692 2.97500541,35.0893903 C2.40853243,34.5691348 1.55605676,35.4083947 2.12469459,35.9305533 C5.90430811,39.4013022 10.0702297,42.4198308 14.5599189,44.9309498 C15.2343946,45.3082361 15.8412784,44.2810467 15.1668027,43.9039982" id="Fill-55" fill="#202446"></path>
                </g>
            </g>
        </g>
    </g>
</svg>