<?xml version="1.0" encoding="UTF-8"?>
<svg width="100px" height="62px" viewBox="0 0 100 62" version="1.1" xmlns="http://www.w3.org/2000/svg" xmlns:xlink="http://www.w3.org/1999/xlink">
    <title>Group</title>
    <g id="Page-1" stroke="none" stroke-width="1" fill="none" fill-rule="evenodd">
        <g id="Desktop-Copy" transform="translate(-173.000000, -396.000000)">
            <g id="Group" transform="translate(174.000000, 397.000000)">
                <path d="M41.0658744,11.6504192 L36.088386,13.3495808 C36.088386,13.3495808 34.5247043,13.4681437 34.6157471,14.1924551 C34.7065501,14.9166467 34.8826382,21.625509 34.8826382,21.625509 L34.9477716,35.9453892 L34.9447728,41.2554491 C34.9447728,41.2554491 36.4563958,41.7582036 38.1749344,42.7731737 C39.8935929,43.7882635 42.4727802,44.7816766 43.117637,44.8605988 C43.7624938,44.9392814 43.9538157,44.9082635 43.9042759,44.6215569 C43.8547361,44.3348503 43.8610935,36.9403593 43.8610935,36.9403593 L43.8602539,23.4203593 C43.8602539,23.4203593 43.8643322,15.7682635 44.1594118,15.4877844 C44.4544913,15.2073054 49.1325819,12.4443114 49.1325819,12.4443114 L41.0658744,11.6504192 Z" id="Fill-1" fill="#B17F48"></path>
                <path d="M49.1325819,12.4442994 C49.1325819,12.4442994 47.1783395,13.6360359 46.2922612,14.0869341 C45.4063028,14.5377126 44.0770054,15.1362754 44.0434191,15.7601078 C44.0100727,16.3839401 43.8610935,23.1082515 43.8610935,23.1082515 L43.8499381,40.4456168 L43.8499381,44.5034611 C43.8499381,44.5034611 43.8308659,44.9476527 44.3148683,44.6433413 C44.7988707,44.3389102 49.0670886,41.1694491 49.0670886,41.1694491 L49.9418916,40.3177126 C49.9418916,40.3177126 49.6169442,38.5767545 49.6012306,37.7227425 C49.585517,36.8688503 49.4368977,32.5507665 49.4368977,32.5507665 L49.2942759,22.9520838 L49.2350201,13.2590299 C49.2350201,13.2590299 49.2005941,12.6536407 49.1325819,12.4442994" id="Fill-3" fill="#946C3E"></path>
                <path d="M34.8656771,19.2174251 L34.8656771,20.6552695 C34.8656771,20.6552695 38.589917,21.7871257 40.37107,22.1592216 C42.152343,22.5314371 43.144458,22.7169461 43.8630847,22.6837725 C44.5818313,22.6507186 47.4020002,21.2923952 49.2942279,19.7962275 L49.2942279,18.3583832 C49.2942279,18.3583832 47.3103576,19.9082036 45.8440761,20.5229341 C44.3777946,21.1379042 44.3955474,21.5574251 42.2880076,21.1169461 C40.1805878,20.6764671 34.8656771,19.2174251 34.8656771,19.2174251" id="Fill-5" fill="#F9B200"></path>
                <path d="M35.0460715,35.4098922 L40.4144803,37.7007904 C40.4144803,37.7007904 42.4770384,38.7282156 43.8616333,38.5712096 C45.2461082,38.4143234 49.4958536,35.0374371 49.4958536,35.0374371 L49.5350776,36.4997126 C49.5350776,36.4997126 46.0185929,39.4116886 44.8266394,39.7132455 C43.6348059,40.0146826 43.0909479,40.0047425 42.2708426,39.7404311 C41.4509772,39.4761198 35.0460715,36.6977964 35.0460715,36.6977964 L35.0460715,35.4098922 Z" id="Fill-7" fill="#F9B200"></path>
                <path d="M49.6767038,38.0868383 C49.4886206,36.8681557 49.5301236,35.637018 49.4742264,34.4103114 C49.1622338,27.5093533 49.3316047,20.6049222 49.2905814,13.7016886 C49.2905814,13.7016886 49.2585545,12.2716287 48.9986206,12.2973772 L40.9698176,11.6504311 C39.3658323,12.2758204 36.6680135,13.1504311 35.0417173,13.7006108 C34.7075337,13.814503 34.5746279,13.7473174 34.6156512,14.0627665 C34.8775043,16.1196527 34.8421187,18.5160599 34.8871004,20.5730659 C35.0389584,27.4729461 34.9447968,34.3772575 34.9447968,41.2554611 C35.1712644,41.3124671 35.3102876,41.3237246 35.4278397,41.3795329 C37.8070685,42.5014491 40.0423562,43.9212096 42.5920355,44.6961796 C43.3460477,44.9263593 43.8594382,44.960012 44.5574333,44.4991737 C46.4517001,43.2487545 48.2530049,41.8910299 49.967705,40.4093533 C49.7218054,39.5942635 49.8279621,38.8249222 49.6767038,38.0868383" id="Stroke-9" stroke="#212348" stroke-width="0.5" stroke-linecap="round" stroke-linejoin="round"></path>
                <path d="M43.8620101,40.008503 C43.8624901,41.2386826 43.8630901,42.468982 43.8639301,43.6990419 C43.8645301,44.0549701 43.7954101,44.4207186 43.9587301,44.7634731" id="Stroke-11" stroke="#212348" stroke-width="0.5" stroke-linecap="round" stroke-linejoin="round"></path>
                <path d="M43.8630616,22.6838204 C43.8610216,24.5682515 43.8610216,27.1062156 43.8610216,28.9911257 C43.8610216,32.1841796 43.8607816,35.325018 43.8616216,38.5186707" id="Stroke-13" stroke="#212348" stroke-width="0.5" stroke-linecap="round" stroke-linejoin="round"></path>
                <path d="M34.6156991,14.0628144 C35.2293687,14.1914371 37.5565388,14.7654491 38.1463381,14.9694012 C38.1463381,14.9694012 39.1342548,15.2006587 40.2699513,15.3265269 C41.4055278,15.4523952 42.897119,15.6686826 44.0326955,15.6276048 C44.180955,17.2894012 43.879398,18.9260479 43.867283,20.5720359 C43.8656037,20.7967066 43.8642842,21.0213772 43.8630847,21.2460479" id="Stroke-15" stroke="#212348" stroke-width="0.5" stroke-linecap="round" stroke-linejoin="round"></path>
                <path d="M48.9985846,12.4442994 C48.0014316,13.2609461 46.8470228,13.8122036 45.7028098,14.3787904 C45.1347217,14.6607066 44.4525601,15.1322036 44.0327315,15.6276527" id="Stroke-17" stroke="#212348" stroke-width="0.5" stroke-linecap="round" stroke-linejoin="round"></path>
                <path d="M34.8656771,19.2174251 C34.8656771,19.2174251 42.0892487,21.4408982 43.8630847,21.2459281 C45.6370406,21.0509581 49.2942279,18.3583832 49.2942279,18.3583832" id="Stroke-19" stroke="#212348" stroke-width="0.5" stroke-linecap="round" stroke-linejoin="round"></path>
                <path d="M34.8656771,20.6552575 C34.8656771,20.6552575 42.0892487,22.8788503 43.8630847,22.6837605 C45.6370406,22.4889102 49.2942279,19.7962156 49.2942279,19.7962156" id="Stroke-21" stroke="#212348" stroke-width="0.5" stroke-linecap="round" stroke-linejoin="round"></path>
                <path d="M40.3771035,27.159988 C40.3912578,27.1882515 40.4258037,27.3296886 40.4553116,27.4708862 C40.5068906,27.7178323 40.5540313,27.9665749 40.6093288,28.2131617 C40.6606678,28.4466946 40.7394756,28.6741198 40.7536299,28.9183114 C40.7616666,29.0597485 40.6838184,29.242982 40.6135271,29.3645389 L40.6094487,29.3705269 L40.5633875,29.4433413 C40.4832602,29.5779521 40.4092504,29.6853772 40.3041733,29.7980719 C40.2648294,29.8411856 40.2157694,29.8660958 40.1541146,29.8738802 C40.0303251,29.8901677 39.907975,29.8941198 39.7840656,29.8870539 C39.7595956,29.8852575 39.7338061,29.8835808 39.7110154,29.885018 C39.6543985,29.8887305 39.4215736,29.8689701 39.3643569,29.8708862" id="Stroke-23" stroke="#212348" stroke-width="0.5" stroke-linecap="round"></path>
                <path d="M42.362845,28.3548982 C42.3689625,28.5287904 42.3740005,28.5123832 42.3524093,28.5974132 C42.3363359,28.6568144 42.2523701,28.7097485 42.2007912,28.7364551 C41.9809209,28.8478323 41.7628499,28.9607665 41.5321841,29.0496287 C41.2391437,29.1642395 41.0641351,29.2174132 40.868375,29.2962156 L40.6237949,29.3796886" id="Stroke-25" stroke="#212348" stroke-width="0.5" stroke-linecap="round" stroke-linejoin="bevel"></path>
                <path d="M40.6545983,25.4002994 C40.9010977,25.4028144 41.1154502,25.4346707 41.3623094,25.4654491 C41.4570707,25.4775449 41.5787011,25.5096407 41.674422,25.5401796 C41.7016509,25.5485629 41.7291197,25.5553892 41.7570683,25.5762275 C41.8156044,25.5326347 41.8567476,25.4741916 41.9132446,25.432515 C41.9811368,25.3831737 42.0478296,25.3737126 42.1220793,25.4064072 C42.1969288,25.4383832 42.2659006,25.4812575 42.3146007,25.5472455 C42.3599422,25.6085629 42.3598223,25.6841317 42.3567035,25.7545509 C42.3510659,25.8598204 42.31628,25.9553892 42.2362727,26.0298802 C42.1760573,26.0849701 42.1206399,26.1458084 42.0569459,26.1958683 C42.0315163,26.2168263 42.0299569,26.2395808 42.0359545,26.2562275 C42.1126032,26.4891617 42.2775359,27.1877246 42.3628211,28.3549102" id="Stroke-27" stroke="#212348" stroke-width="0.5" stroke-linecap="round"></path>
                <path d="M37.1692289,25.842503 C37.090661,25.7551976 36.9894223,25.6790299 36.9280073,25.5762754 C36.8679119,25.4731617 36.8460808,25.3819042 36.9271677,25.279988 C37.0182105,25.1634611 37.1093733,25.0593892 37.2696279,25.0337605 C37.3513146,25.0207066 37.4055324,25.0334012 37.4519535,25.0961557 C37.5077307,25.171006 37.5627882,25.2205868 37.6751824,25.2234611 C37.8266805,25.2274132 37.9792583,25.2401078 38.1306365,25.2508862 C38.3984871,25.2690898 38.6656181,25.2902874 38.9315496,25.305976 C39.2099559,25.3226228 40.3770796,25.3792695 40.6546463,25.4003473" id="Stroke-29" stroke="#212348" stroke-width="0.5" stroke-linecap="round"></path>
                <path d="M40.3771035,27.159988 C40.3394389,27.0934012 40.3063324,27.019509 40.2425185,26.9731617 C40.1639506,26.9153174 40.0749469,26.9083713 39.9867829,26.8893293 C39.7498796,26.8380719 39.5106972,26.8530419 39.2722345,26.8538802 C39.1880289,26.854 39.1254144,26.8949581 39.0666384,26.9605868 C38.920778,27.122982 38.8739971,27.3277725 38.8089836,27.5251377 C38.7481684,27.711485 38.6891525,27.8980719 38.6295368,28.0845389 C38.5699212,28.2716048 38.5004695,28.4550778 38.4544083,28.6452575 C38.4302982,28.7492096 38.4314977,28.8615449 38.472401,28.9693293 C38.5242198,29.1090898 38.5883936,29.2622635 38.6675613,29.3931617 C38.6869934,29.4265749 38.7083447,29.4586707 38.7304157,29.488491 C38.783554,29.5551976 38.8865919,29.6743593 38.9462076,29.7168743 C38.9651599,29.7360359 39.0053435,29.7555569 39.0366507,29.7734012 C39.1408881,29.8343593 39.2475246,29.8725629 39.3643569,29.8708862" id="Stroke-31" stroke="#212348" stroke-width="0.5"></path>
                <path d="M36.953341,26.6218802 C36.9143569,26.7293054 36.683811,27.7363713 36.6575417,27.8464311 C36.6259946,27.9781677 36.5994854,28.1114611 36.5930081,28.247988 C36.585811,28.3882275 36.6262345,28.4894251 36.7501439,28.5706228 C37.0100778,28.7425988 37.3627339,28.9331377 37.54386,29.0083473 C37.8972357,29.1536168 38.45033,29.3538563 38.6493288,29.4040359" id="Stroke-33" stroke="#212348" stroke-width="0.5" stroke-linecap="round"></path>
                <path d="M37.169317,25.842503 C37.131997,25.9660958 37.089277,26.0882515 37.058677,26.214 C37.025197,26.3506467 36.984997,26.4851377 36.953317,26.6219042" id="Stroke-35" stroke="#212348" stroke-width="0.5" stroke-linecap="round"></path>
                <path d="M39.5813723,29.596012 C39.7868485,29.6060719 39.7802512,29.6315808 39.846704,29.5865509 C39.9845278,29.4954132 40.1127554,29.3469102 40.2268289,29.2363713 C40.2697714,29.1945749 40.3592548,29.1119401 40.356496,29.0350539 C40.351458,28.8943353 40.3752083,28.8272695 40.3696906,28.6828383 C40.3659721,28.5839162 40.3500186,28.5678683 40.24866,28.5512216 C40.0614164,28.5199641 39.8728534,28.4885868 39.6841704,28.4712216 C39.4088827,28.4454731 39.5588215,28.4451138 39.2499476,28.4508623 C39.1718595,28.4525389 39.0938913,28.4381677 39.0132842,28.4524192 C38.9506698,28.4639162 38.9253601,28.4942156 38.9144446,28.5476287 C38.8830174,28.6973293 38.861786,28.8473892 38.856988,29.0011617 C38.8559084,29.0545749 38.883977,29.0906228 38.9194825,29.1216407 C39.0724201,29.2545749 39.2271569,29.3857126 39.381414,29.5169701 C39.4080431,29.539485 39.4377909,29.5911018 39.5813723,29.596012 Z" id="Stroke-37" stroke="#212348" stroke-width="0.5" stroke-linecap="round"></path>
                <path d="M40.5055301,27.131371 C40.4545301,27.189331 40.4100101,27.237331 40.4319701,27.329251 L40.4001701,27.194491 C40.4182901,27.171331 40.4876501,27.105931 40.4899301,27.080251 C40.5090101,26.949451 40.6299701,26.896891 40.7356901,26.969011 C40.7882501,27.005011 40.7948501,27.065611 40.7911301,27.125131 C40.7880101,27.185251 40.7522501,27.229771 40.6849301,27.236851 C40.6058501,27.244411 40.5481301,27.211891 40.5055301,27.131371" id="Fill-39" fill="#212348"></path>
                <path d="M38.5868732,26.9389394 C38.6220419,26.7522194 38.8995371,26.8174994 38.8948399,26.9409794 C38.892672,26.9894594 38.9368737,26.9790194 38.9961305,27.0374594 L38.9763782,27.0649394 C38.9640933,27.0508994 38.9171214,27.0108194 38.8902632,27.0033794 C38.8859273,27.0598994 38.8383532,27.0921794 38.7964399,27.1033394 C38.738508,27.1186994 38.6822622,27.1194194 38.6305931,27.0859394 C38.5826578,27.0530594 38.5779606,26.9907794 38.5868732,26.9389394" id="Fill-41" fill="#212348"></path>
                <path d="M34.9477956,35.3714132 C34.9477956,35.3714132 41.9909608,38.726982 43.7649168,38.532012 C45.5387528,38.3369222 49.3976977,34.9989581 49.3976977,34.9989581" id="Stroke-43" stroke="#212348" stroke-width="0.5" stroke-linecap="round" stroke-linejoin="round"></path>
                <path d="M34.9477956,36.6593054 C34.9477956,36.6593054 41.9909608,40.1648144 43.7649168,39.9698443 C45.5387528,39.7747545 49.4369217,36.4611018 49.4369217,36.4611018" id="Stroke-45" stroke="#212348" stroke-width="0.5" stroke-linecap="round" stroke-linejoin="round"></path>
                <polyline id="Stroke-47" stroke="#212348" stroke-width="0.5" stroke-linecap="round" stroke-linejoin="round" points="34.8826622 20.3517605 35.6336756 19.8082874 36.0375508 20.7256527 36.6758103 20.1297246 37.2164296 21.0401437 37.8578078 20.3636168 38.2976683 21.3978683 39.0272105 20.6760719 39.4096144 21.6994251 40.0879376 21.0001437 40.5774578 21.9702036 41.343705 21.1648144 41.853377 22.2817006 42.3762436 21.3266108 42.9221408 22.3880479 43.4277344 21.443976 44.0336071 22.3226587 44.4396414 21.3236168 44.9544712 22.1066108 45.3061677 21.0922395 45.9185177 21.6255329 46.2505422 20.669485 46.8824443 21.0791856 47.1691273 20.0191856 47.696672 20.523018 48.0362534 19.5358323 48.517377 19.9086467 48.7518813 19.1672096 49.2904614 19.5706826"></polyline>
                <polyline id="Stroke-49" stroke="#212348" stroke-width="0.5" stroke-linecap="round" stroke-linejoin="round" points="35.0460715 36.5182635 35.7970849 35.9746707 36.1563383 36.9337126 36.8061131 36.461018 37.2261816 37.4183832 37.9141009 36.9436527 38.340047 37.8202994 39.0043359 37.4086826 39.3757043 38.2768263 40.1377532 37.8963473 40.5773738 38.861976 41.3688108 38.3547904 41.8279834 39.3400599 42.3761596 38.7174251 42.9515647 39.5838922 43.4277704 38.8349102 43.9969381 39.5741916 44.4396774 38.7145509 45.1205195 39.1352695 45.3745758 38.2671257 45.9900446 38.5848503 46.2730091 37.7204192 46.8664069 38.0339521 47.172282 37.0672455 47.8269748 37.3110778 48.0362894 36.4311976 48.5889038 36.715988 48.8153714 35.8617365 49.4369576 36.1892814"></polyline>
                <path d="M32.6068671,14.2899401 L27.6293787,15.9891018 C27.6293787,15.9891018 26.0656969,16.1075449 26.1567398,16.8318563 C26.2475427,17.5560479 26.4236308,24.2649102 26.4236308,24.2649102 L26.4887643,38.5847904 L26.4857655,43.8948503 C26.4857655,43.8948503 27.9973885,44.3976048 29.7159271,45.4125749 C31.4345856,46.4276647 34.0137728,47.4211976 34.6586296,47.5 C35.3034864,47.5786826 35.4948083,47.5476647 35.4452685,47.2610778 C35.3957288,46.9742515 35.4020862,39.5797605 35.4020862,39.5797605 L35.4012465,26.0597605 C35.4012465,26.0597605 35.4054448,18.4077844 35.7004044,18.1271856 C35.995484,17.8467066 40.6735745,15.0837126 40.6735745,15.0837126 L32.6068671,14.2899401 Z" id="Fill-51" fill="#B17F48"></path>
                <path d="M40.6735745,15.0837006 C40.6735745,15.0837006 38.7193322,16.2754371 37.8332539,16.7263353 C36.9472955,17.1771138 35.617998,17.7756766 35.5844118,18.399509 C35.5510654,19.0233413 35.4020862,25.7476527 35.4020862,25.7476527 L35.3909307,43.085018 L35.3909307,47.1428623 C35.3909307,47.1428623 35.3718585,47.5870539 35.855861,47.2827425 C36.3398634,46.9783114 40.6080813,43.8089701 40.6080813,43.8089701 L41.4828842,42.9572335 C41.4828842,42.9572335 41.1579368,41.2161557 41.1422233,40.3622635 C41.1265097,39.5082515 40.9778903,35.1901677 40.9778903,35.1901677 L40.8352685,25.591485 L40.7760127,15.8984311 C40.7760127,15.8984311 40.7415868,15.2930419 40.6735745,15.0837006" id="Fill-53" fill="#946C3E"></path>
                <path d="M26.4066698,21.8568383 L26.4066698,23.2946826 C26.4066698,23.2946826 30.1309097,24.4265389 31.9120627,24.7986347 C33.6933356,25.1708503 34.6854507,25.3563593 35.4040774,25.3231856 C36.122824,25.2901317 38.9429929,23.9318084 40.8352206,22.4357605 L40.8352206,20.9977964 C40.8352206,20.9977964 38.8513503,22.5476168 37.3850688,23.1623473 C35.9187873,23.7773174 35.93654,24.1968383 33.8290002,23.7563593 C31.7215804,23.3158802 26.4066698,21.8568383 26.4066698,21.8568383" id="Fill-55" fill="#F9B200"></path>
                <path d="M26.5870641,38.0492934 L31.9554729,40.3401916 C31.9554729,40.3401916 34.0180311,41.3676168 35.4026259,41.2106108 C36.7871009,41.0538443 41.0368463,37.6769581 41.0368463,37.6769581 L41.0760703,39.1391138 C41.0760703,39.1391138 37.5595856,42.0510898 36.3676321,42.3527665 C35.1757985,42.6542036 34.6319405,42.6442635 33.8119552,42.3798323 C32.9919699,42.115521 26.5870641,39.3371976 26.5870641,39.3371976 L26.5870641,38.0492934 Z" id="Fill-57" fill="#F9B200"></path>
                <path d="M41.2176965,40.7262515 C41.0296132,39.5075689 41.0711163,38.2764311 41.015339,37.0498443 C40.7032264,30.1487665 40.8725973,23.2443353 40.8315741,16.3411018 C40.8315741,16.3411018 40.7995471,14.9111617 40.5396132,14.9367904 L32.5108103,14.2899641 C30.906825,14.9152335 28.2090061,15.7898443 26.5827099,16.340024 C26.2485263,16.4539162 26.1156206,16.3867305 26.1566438,16.7021796 C26.4184969,18.7590659 26.3831114,21.1555928 26.428093,23.212479 C26.579951,30.1123593 26.4857895,37.0166707 26.4857895,43.8948743 C26.712257,43.9518802 26.8512803,43.9631377 26.9689523,44.0190659 C29.3480612,45.1408623 31.5833488,46.5606228 34.1330282,47.3355928 C34.8870404,47.5657725 35.4004308,47.5994251 36.0985459,47.1385868 C37.9926928,45.8881677 39.7939976,44.5304431 41.5086977,43.0487665 C41.262798,42.2336766 41.3689547,41.4643353 41.2176965,40.7262515" id="Stroke-59" stroke="#212348" stroke-width="0.5" stroke-linecap="round" stroke-linejoin="round"></path>
                <path d="M35.4030027,42.6479162 C35.4034827,43.8780958 35.4040827,45.1083952 35.4050427,46.3384551 C35.4055227,46.694503 35.3364027,47.0601317 35.4997227,47.4028862" id="Stroke-61" stroke="#212348" stroke-width="0.5" stroke-linecap="round" stroke-linejoin="round"></path>
                <path d="M35.4040542,25.3232216 C35.4020142,27.2076527 35.4020142,29.7456168 35.4020142,31.6305269 C35.4020142,34.8235808 35.4017742,37.9644192 35.4026142,41.1580719" id="Stroke-63" stroke="#212348" stroke-width="0.5" stroke-linecap="round" stroke-linejoin="round"></path>
                <path d="M26.1566918,16.7022275 C26.7703613,16.8308503 29.0976514,17.404982 29.6874507,17.6088144 C29.6874507,17.6088144 30.6752475,17.8400719 31.8109439,17.9659401 C32.9465204,18.0918084 34.4381116,18.3080958 35.5738081,18.2671377 C35.7220676,19.9288144 35.4203907,21.5654611 35.4082756,23.2114491 C35.4065963,23.4361198 35.4052769,23.6607904 35.4040774,23.8854611" id="Stroke-65" stroke="#212348" stroke-width="0.5" stroke-linecap="round" stroke-linejoin="round"></path>
                <path d="M40.5395772,15.0837006 C39.5424242,15.9003473 38.3880154,16.4516048 37.2438024,17.0181916 C36.6757143,17.3002275 35.9936727,17.7716048 35.5738441,18.2671737" id="Stroke-67" stroke="#212348" stroke-width="0.5" stroke-linecap="round" stroke-linejoin="round"></path>
                <path d="M26.4066698,21.8568383 C26.4066698,21.8568383 33.6302414,24.0803114 35.4040774,23.8853413 C37.1780333,23.690491 40.8352206,20.9977964 40.8352206,20.9977964" id="Stroke-69" stroke="#212348" stroke-width="0.5" stroke-linecap="round" stroke-linejoin="round"></path>
                <path d="M26.4066698,23.2946707 C26.4066698,23.2946707 33.6302414,25.5182635 35.4040774,25.3231737 C37.1780333,25.1283234 40.8352206,22.4357485 40.8352206,22.4357485" id="Stroke-71" stroke="#212348" stroke-width="0.5" stroke-linecap="round" stroke-linejoin="round"></path>
                <path d="M31.9180962,29.799509 C31.9322504,29.8276527 31.9667963,29.9690898 31.9964242,30.1102874 C32.0478832,30.3572335 32.0951439,30.605976 32.1503214,30.8525629 C32.2016605,31.0860958 32.2804683,31.313521 32.2946225,31.5577126 C32.3026592,31.6991497 32.224811,31.8823832 32.1545197,32.0039401 L32.1504414,32.0099281 L32.1043802,32.0827425 C32.0242529,32.2173533 31.9502431,32.3247784 31.845166,32.4374731 C31.805822,32.4805868 31.7567621,32.505497 31.6951072,32.5132814 C31.5713177,32.5295689 31.4489677,32.533521 31.3251782,32.5264551 C31.3005882,32.5247784 31.2749187,32.522982 31.2520081,32.5245389 C31.1953912,32.5281317 30.9625662,32.508491 30.9054695,32.5102874" id="Stroke-73" stroke="#212348" stroke-width="0.5" stroke-linecap="round"></path>
                <path d="M33.9038377,30.9943114 C33.9099552,31.1682036 33.9149931,31.1517964 33.893402,31.2368263 C33.8773285,31.2962275 33.7933628,31.3491617 33.7417838,31.3758683 C33.5219136,31.4872455 33.3038426,31.6001796 33.0731767,31.6891617 C32.7801364,31.8036527 32.6051278,31.8568263 32.4093677,31.9356287 L32.1649075,32.0192216" id="Stroke-75" stroke="#212348" stroke-width="0.5" stroke-linecap="round" stroke-linejoin="bevel"></path>
                <path d="M32.1957109,28.0397126 C32.4420903,28.0422275 32.6564428,28.0740838 32.9033021,28.1048623 C32.9980634,28.1169581 33.1196938,28.1490539 33.2155346,28.1795928 C33.2427635,28.1880958 33.2701124,28.1948024 33.298061,28.2156407 C33.3565971,28.1720479 33.3977403,28.1137246 33.4542372,28.0719281 C33.5221295,28.0225868 33.5889422,28.0132455 33.663072,28.0458204 C33.7379214,28.0777964 33.8068933,28.1207904 33.8555934,28.1866587 C33.9009349,28.2480958 33.9008149,28.3235449 33.8976962,28.3939641 C33.8920585,28.4993533 33.8572727,28.5948024 33.7772654,28.6692934 C33.7170499,28.7243832 33.6616326,28.7852216 33.5979386,28.8354012 C33.5725089,28.8562395 33.5709496,28.878994 33.5769471,28.8957605 C33.6535958,29.1285749 33.8185285,29.8271377 33.9038137,30.9943234" id="Stroke-77" stroke="#212348" stroke-width="0.5" stroke-linecap="round"></path>
                <path d="M28.7102215,28.4819042 C28.6316536,28.3945988 28.5304149,28.3184311 28.469,28.2156766 C28.4089045,28.1125629 28.3870734,28.0214251 28.4681603,27.9193892 C28.5592032,27.8028623 28.650366,27.6987904 28.8106206,27.6731617 C28.8923072,27.6601078 28.9465251,27.6728024 28.9929461,27.7355569 C29.0487234,27.8104072 29.1037809,27.859988 29.216175,27.8628623 C29.3677931,27.8668144 29.5202509,27.879509 29.6716291,27.8902874 C29.9394798,27.908491 30.2066108,27.9296886 30.4725422,27.9453772 C30.7509486,27.962024 31.9180722,28.0186707 32.1957589,28.0397485" id="Stroke-79" stroke="#212348" stroke-width="0.5" stroke-linecap="round"></path>
                <path d="M31.9180962,29.799509 C31.8804316,29.7328024 31.8473251,29.6589102 31.7835111,29.6126826 C31.7049432,29.5547186 31.6160595,29.5477725 31.5277755,29.5287305 C31.2908722,29.4775928 31.0516898,29.4925629 30.8132272,29.4932814 C30.7290215,29.4934012 30.6664071,29.5343593 30.6076311,29.599988 C30.4617706,29.7623832 30.4149897,29.9672934 30.3499763,30.1645389 C30.2891611,30.3508862 30.2301452,30.5374731 30.1705295,30.7239401 C30.1109138,30.911006 30.0414622,31.094479 29.995401,31.2846587 C29.9712908,31.3886108 29.9724903,31.5009461 30.0133936,31.6088503 C30.0652125,31.748491 30.1293863,31.9016647 30.208554,32.0325629 C30.227986,32.065976 30.2493373,32.0980719 30.2714083,32.1278922 C30.3245466,32.1945988 30.4275846,32.3137605 30.4872002,32.3562754 C30.5061525,32.3754371 30.5463361,32.3949581 30.5776433,32.4128024 C30.6818808,32.4737605 30.7885173,32.5119641 30.9054695,32.5102874" id="Stroke-81" stroke="#212348" stroke-width="0.5"></path>
                <path d="M28.4943337,29.2612934 C28.4553496,29.3687186 28.2248037,30.3759042 28.1985344,30.4858443 C28.1669873,30.6175808 28.1404781,30.7508743 28.1340007,30.8874012 C28.1268037,31.0276407 28.1672272,31.1288383 28.2911366,31.2100359 C28.5510705,31.382012 28.9037266,31.5725509 29.0848526,31.6477605 C29.4382284,31.7930299 29.9913226,31.9932695 30.1903214,32.0434491" id="Stroke-83" stroke="#212348" stroke-width="0.5" stroke-linecap="round"></path>
                <path d="M28.7103097,28.4819042 C28.6729897,28.605497 28.6302697,28.7276527 28.5996697,28.8534012 C28.5661897,28.9900479 28.5259897,29.1245389 28.4943097,29.2613054" id="Stroke-85" stroke="#212348" stroke-width="0.5" stroke-linecap="round"></path>
                <path d="M31.122365,32.2354132 C31.3279611,32.2454731 31.3212438,32.270982 31.3876967,32.2259521 C31.5255204,32.1348144 31.6537481,31.9863114 31.7678215,31.8757725 C31.810764,31.833976 31.9003674,31.7513413 31.8974886,31.6744551 C31.8924507,31.5338563 31.916201,31.4666707 31.9106832,31.3222395 C31.9069647,31.2233174 31.8910113,31.2072695 31.7896526,31.1906228 C31.6024091,31.1593653 31.413846,31.127988 31.225163,31.1106228 C30.9498754,31.0848743 31.0998142,31.084515 30.7909403,31.0902635 C30.7128521,31.0919401 30.634884,31.0775689 30.5542769,31.0919401 C30.4916624,31.1033174 30.4664727,31.1336168 30.4555572,31.1871497 C30.42401,31.3367305 30.4027787,31.4867904 30.3981006,31.6405629 C30.3970211,31.693976 30.4249696,31.730024 30.4604752,31.7610419 C30.6134127,31.893976 30.7681496,32.0251138 30.9224066,32.1563713 C30.9490357,32.1788862 30.9787836,32.230503 31.122365,32.2354132 Z" id="Stroke-87" stroke="#212348" stroke-width="0.5" stroke-linecap="round"></path>
                <path d="M32.2766708,29.6084722 C32.3292308,29.6444722 32.3358308,29.7050722 32.3321108,29.7645922 C32.3289908,29.8247122 32.2932308,29.8692322 32.2259108,29.8761922 C32.1468308,29.8838722 32.0892308,29.8512322 32.0465108,29.7708322 C31.9955108,29.8289122 31.9509908,29.8766722 31.9729508,29.9687122 L31.9411508,29.8339522 C31.9592708,29.8107922 32.0286308,29.7455122 32.0309108,29.7197122 C32.0499908,29.5889122 32.1709508,29.5362322 32.2766708,29.6084722" id="Fill-89" fill="#212348"></path>
                <path d="M30.5371714,29.6769085 L30.5175396,29.7043885 C30.5050137,29.6902285 30.4581623,29.6501485 30.4311836,29.6429485 C30.4269682,29.6993485 30.3792737,29.7316285 30.3374808,29.7427885 C30.2794284,29.7581485 30.2233031,29.7588685 30.1716341,29.7252685 C30.1235782,29.6925085 30.1188811,29.6301085 30.1279141,29.5783885 C30.1630828,29.3916685 30.4404576,29.4569485 30.4357604,29.5803085 C30.4337129,29.6289085 30.478035,29.6184685 30.5371714,29.6769085" id="Fill-91" fill="#212348"></path>
                <path d="M26.4887882,38.0108263 C26.4887882,38.0108263 33.5319535,41.3663952 35.3059094,41.1714251 C37.0797454,40.9763353 40.9386903,37.6383713 40.9386903,37.6383713" id="Stroke-93" stroke="#212348" stroke-width="0.5" stroke-linecap="round" stroke-linejoin="round"></path>
                <path d="M26.4887882,39.2987186 C26.4887882,39.2987186 33.5319535,42.8042275 35.3059094,42.6092575 C37.0797454,42.4142874 40.9779143,39.100515 40.9779143,39.100515" id="Stroke-95" stroke="#212348" stroke-width="0.5" stroke-linecap="round" stroke-linejoin="round"></path>
                <polyline id="Stroke-97" stroke="#212348" stroke-width="0.5" stroke-linecap="round" stroke-linejoin="round" points="26.4236548 22.9911737 27.1746683 22.4477006 27.5785435 23.3650659 28.2168029 22.7691377 28.7574223 23.6795569 29.3988005 23.0030299 29.8387809 24.0372814 30.5682032 23.315485 30.9506071 24.3388383 31.6289302 23.6395569 32.1184504 24.6096168 32.8846977 23.8042275 33.3943696 24.9211138 33.9172362 23.966024 34.4631334 25.0274611 34.9687271 24.0833892 35.5747197 24.9620719 35.980634 23.9630299 36.4954639 24.7461437 36.8471603 23.7316527 37.4595104 24.2649461 37.7916548 23.3088982 38.423437 23.7185988 38.71012 22.6587186 39.2376646 23.1624311 39.577246 22.1752455 40.0583696 22.5480599 40.2928739 21.8066228 40.8314541 22.2100958"></polyline>
                <polyline id="Stroke-99" stroke="#212348" stroke-width="0.5" stroke-linecap="round" stroke-linejoin="round" points="26.5870641 39.1576647 27.3380776 38.6141916 27.697331 39.5731138 28.3471058 39.1004192 28.7672942 40.0577844 29.4550935 39.5831737 29.8810397 40.4597006 30.5454485 40.0480838 30.9166969 40.9162275 31.6787459 40.5357485 32.1183665 41.5013772 32.9098034 40.9941916 33.368976 41.9794611 33.9171523 41.3568263 34.4925574 42.2234132 34.968763 41.4743114 35.5379307 42.2135928 35.98067 41.3539521 36.6615121 41.7746707 36.9155684 40.9065269 37.5310372 41.2242515 37.8140017 40.3598204 38.4073995 40.6733533 38.7133946 39.7066467 39.3679674 39.950479 39.577282 39.0705988 40.1300164 39.3553892 40.356484 38.5012575 40.9779503 38.8286826"></polyline>
                <g id="Group-104" transform="translate(16.073439, 0.038204)">
                    <polyline id="Fill-101" fill="#202446" points="58.1149716 1.5894012 31.7259826 0.0321556886 0.0550695226 8.7151497 26.4977966 12.3109581"></polyline>
                    <polyline id="Stroke-103" stroke="#202348" stroke-width="0.62112" stroke-linecap="round" stroke-linejoin="round" points="58.1149716 1.5894012 31.7259826 0.0321556886 0.0550695226 8.7151497 26.4977966 12.3109581"></polyline>
                </g>
                <polygon id="Fill-105" fill="#FEFEFE" points="81.4383119 16.8664311 81.8318712 28.4912216 45.334848 42.5806826 45.2103388 13.750503 74.0606032 3.33816766"></polygon>
                <path d="M70.2020301,6.91637126 C71.6891831,6.37086228 73.235472,5.67062275 73.235472,5.67062275 C75.1686029,8.78427545 76.8101329,11.6978084 79.5841207,16.0325389 C78.3712957,16.3490659 72.1969359,18.4689461 70.5852737,19.0631976 C70.4205809,15.3665509 70.4460105,10.2587665 70.2020301,6.91637126 M43.8641403,52.9991257 C44.9571341,52.0728982 47.1382039,51.4071497 48.2515895,50.9985269 L60.0179469,46.6642754 C66.3180154,45.9507425 77.3679053,39.453976 83.1963263,38.8917006 L94.4497731,34.3603234 C96.1439616,34.2634371 96.4743067,33.6136168 97.9571415,33.0690659 C97.9571415,33.0690659 97.4158024,19.5290659 96.9356384,16.0646347 C96.5171293,13.0514611 94.0115919,11.3593653 91.0137755,12.4417605 C86.732363,13.9922994 82.6096458,15.2103832 82.6096458,15.2103832 C80.7964659,10.4622395 76.3376458,5.31924551 74.188363,1.62762874 C66.4456433,2.63457485 46.8000619,11.1085868 42.571188,12.3491856 C41.5204169,17.8255928 43.7219983,47.0156527 43.8641403,52.9991257" id="Fill-107" fill="#202446"></path>
                <path d="M70.2020301,6.91637126 C71.6891831,6.37086228 73.235472,5.67062275 73.235472,5.67062275 C75.1686029,8.78427545 76.8101329,11.6978084 79.5841207,16.0325389 C78.3712957,16.3490659 72.1969359,18.4689461 70.5852737,19.0631976 C70.4205809,15.3665509 70.4460105,10.2587665 70.2020301,6.91637126 Z M43.8641403,52.9991257 C44.9571341,52.0728982 47.1382039,51.4071497 48.2515895,50.9985269 L60.0179469,46.6642754 C66.3180154,45.9507425 77.3679053,39.453976 83.1963263,38.8917006 L94.4497731,34.3603234 C96.1439616,34.2634371 96.4743067,33.6136168 97.9571415,33.0690659 C97.9571415,33.0690659 97.4158024,19.5290659 96.9356384,16.0646347 C96.5171293,13.0514611 94.0115919,11.3593653 91.0137755,12.4417605 C86.732363,13.9922994 82.6096458,15.2103832 82.6096458,15.2103832 C80.7964659,10.4622395 76.3376458,5.31924551 74.188363,1.62762874 C66.4456433,2.63457485 46.8000619,11.1085868 42.571188,12.3491856 C41.5204169,17.8255928 43.7219983,47.0156527 43.8641403,52.9991257 Z" id="Stroke-109" stroke="#202348" stroke-width="0.62112" stroke-linecap="round" stroke-linejoin="round"></path>
                <path d="M59.792295,47.3348263 C59.6025324,51.9036886 56.9441775,56.1004551 53.8545985,56.7085988 C50.7651395,57.3166228 48.414459,54.1057246 48.6043415,49.5368623 C48.794224,44.9678802 51.4525789,40.7711138 54.541918,40.1630898 C57.6314969,39.5549461 59.9821775,42.7659641 59.792295,47.3348263" id="Fill-111" fill="#FEFEFE"></path>
                <path d="M59.792295,47.3348263 C59.6025324,51.9036886 56.9441775,56.1004551 53.8545985,56.7085988 C50.7651395,57.3166228 48.414459,54.1057246 48.6043415,49.5368623 C48.794224,44.9678802 51.4525789,40.7711138 54.541918,40.1630898 C57.6314969,39.5549461 59.9821775,42.7659641 59.792295,47.3348263 Z" id="Stroke-113" stroke="#202348" stroke-width="0.87" stroke-linecap="round" stroke-linejoin="round"></path>
                <path d="M94.3590541,35.6691737 C94.1691716,40.2380359 91.5108166,44.4348024 88.4213576,45.0428263 C85.3318987,45.6509701 82.9812181,42.4400719 83.1711006,37.8712096 C83.3609831,33.3022275 86.0193381,29.1054611 89.1086771,28.4973174 C92.1981361,27.8892934 94.5488166,31.1003114 94.3590541,35.6691737" id="Fill-115" fill="#FEFEFE"></path>
                <path d="M94.3590541,35.6691737 C94.1691716,40.2380359 91.5108166,44.4348024 88.4213576,45.0428263 C85.3318987,45.6509701 82.9812181,42.4400719 83.1711006,37.8712096 C83.3609831,33.3022275 86.0193381,29.1054611 89.1086771,28.4973174 C92.1981361,27.8892934 94.5488166,31.1003114 94.3590541,35.6691737 Z" id="Stroke-117" stroke="#202348" stroke-width="0.87" stroke-linecap="round" stroke-linejoin="round"></path>
                <path d="M90.483484,36.5822275 C90.4304656,37.8593533 89.6621792,39.0376766 88.7691437,39.2133653 C87.8749087,39.3892934 87.1939466,38.4963593 87.2470849,37.2191138 C87.3001033,35.9404311 88.0670703,34.7623473 88.9614252,34.5862994 C89.8544607,34.410491 90.5366223,35.3033054 90.483484,36.5822275 Z" id="Stroke-119" stroke="#202348" stroke-width="0.87" stroke-linecap="round" stroke-linejoin="round"></path>
                <path d="M55.8808835,48.0114012 C55.8278651,49.2886467 55.0618578,50.4663713 54.1665432,50.6426587 C53.2744673,50.8182275 52.5924257,49.9254132 52.6454441,48.6481677 C52.6985824,47.369485 53.4668688,46.1911617 54.3588247,46.0155928 C55.2540193,45.8394251 55.9339018,46.7325988 55.8808835,48.0114012 Z" id="Stroke-121" stroke="#202348" stroke-width="0.87" stroke-linecap="round" stroke-linejoin="round"></path>
                <polygon id="Fill-123" fill="#F8B100" points="64.4657075 4.24608383 66.5655704 45.1464431 69.4310808 43.6956647 67.171683 3.34081437"></polygon>
                <path d="M44.913328,10.9159521 L47.0131909,51.8164311 L48.2738764,51.394515 C47.9233794,48.9278084 49.3792252,44.8258922 49.5629902,44.7282874 L47.6193035,10.0108024 L44.913328,10.9159521 Z" id="Fill-125" fill="#F8B100"></path>
                <polyline id="Stroke-127" stroke="#202446" stroke-width="0.5" stroke-linecap="round" stroke-linejoin="round" points="46.9908081 10.8016886 45.4911802 13.6057605 47.0760933 15.186 45.8608693 18.1507904 47.5707714 19.2416886 46.1420345 22.8533054 48.0557334 23.8760599 46.2254005 27.1743832 48.1909182 28.371509 46.5321153 31.1758204 48.3071508 32.2339042 46.7302744 36.214982 48.6631655 36.9754611 46.9557824 40.6162994 48.821261 42.2307904 47.2103185 44.4324671 48.7089868 45.594024 47.289846 48.6268383 48.2488546 49.8494731"></polyline>
                <polyline id="Stroke-129" stroke="#202446" stroke-width="0.5" stroke-linecap="round" stroke-linejoin="round" points="66.6072534 4.1971976 65.3549645 6.9611497 66.8994541 8.7468982 65.189672 11.7916886 67.2387956 13.8350419 65.4847515 16.9587545 67.610164 18.9551617 65.9551995 22.7916886 67.7740171 24.4004311 66.3355643 28.2071377 68.1324308 30.1217485 66.4622326 33.4516886 68.2762521 34.9065389 66.7733856 38.6346826 68.5538188 40.0003114 67.0258825 42.8991138 68.9079143 43.5154012"></polyline>
                <path d="M59.4388832,25.0562275 C59.4526776,25.0105988 59.4676715,24.9592216 59.4823055,24.9041317 C59.6044157,24.4661677 59.7512357,23.7694012 59.706494,23.4115569 C59.6180901,22.7157485 59.3967804,22.13 59.2295687,21.4983832 C59.0526409,20.8335928 58.8926262,20.1553892 58.7236152,19.4859281 C58.6266947,19.1035329 58.5190987,18.7250898 58.4819138,18.6562275" id="Stroke-131" stroke="#FEFEFE" stroke-width="0.5" stroke-linecap="round"></path>
                <path d="M63.0176225,20.2915329 C63.0719603,20.7906946 63.0789175,20.7385988 63.053128,21.0051856 C63.0342957,21.1921317 62.8655246,21.423509 62.7602076,21.5487784 C62.3173483,22.0748862 61.877248,22.603509 61.4048808,23.0763234 C60.8044059,23.6772814 60.4423936,23.9934491 60.042117,24.4026707 C59.9526335,24.4947665 59.8106115,24.6116527 59.5218894,24.9151257" id="Stroke-133" stroke="#FEFEFE" stroke-width="0.5" stroke-linecap="round"></path>
                <path d="M58.6574502,13.2946707 C59.1853547,13.0728743 59.6519643,12.9676048 60.1881454,12.8308383 C60.3938614,12.7764671 60.6615922,12.7577844 60.8740255,12.7577844 C60.9331613,12.7579042 60.9933767,12.7520359 61.0594698,12.7861677 C61.174143,12.6059281 61.2486326,12.398503 61.3595873,12.2249701 C61.4932127,12.0194611 61.6337953,11.930479 61.8005273,11.9567066 C61.9684588,11.9805389 62.1259545,12.0413772 62.2461454,12.1876048 C62.3578198,12.3241317 62.3754526,12.5434132 62.3857684,12.7505988 C62.3998027,13.061018 62.3466644,13.3707186 62.1931271,13.6607784 C62.0774942,13.8761078 61.9745763,14.1053293 61.8489875,14.3097605 C61.7993278,14.3923952 61.801367,14.4595808 61.8184,14.5028144 C62.0380304,15.1077246 62.5572984,16.9830539 63.0176705,20.2915569" id="Stroke-135" stroke="#FEFEFE" stroke-width="0.5" stroke-linecap="round"></path>
                <path d="M51.3007209,17.7923473 C51.1102387,17.6116287 50.8782534,17.4850419 50.7208776,17.2406108 C50.5677001,16.9983353 50.4989682,16.754024 50.6485471,16.3810898 C50.8157589,15.9610898 50.9860894,15.5747425 51.3231518,15.3523473 C51.4949217,15.2390539 51.6137931,15.226 51.7282264,15.3651617 C51.8655704,15.5307904 51.9952375,15.6239641 52.236459,15.5288743 C52.5621261,15.4006108 52.8916316,15.2965389 53.2194578,15.1876766 C53.7958225,14.9937844 54.3726671,14.8088743 54.948672,14.6077964 C55.5459082,14.4007305 58.0581628,13.4879162 58.6574382,13.2946228" id="Stroke-137" stroke="#FEFEFE" stroke-width="0.5" stroke-linecap="round"></path>
                <path d="M56.9589195,27.4582156 C57.0811496,27.400012 57.5839843,27.2425269 57.7045351,27.1795329 C57.7529953,27.1541437 57.8085327,27.1353413 57.8613111,27.117497 C58.1282022,27.0239641 58.3894556,26.8994132 58.650469,26.7401317 C58.7820553,26.660012 58.878376,26.5416886 58.9537053,26.3796527 C59.150425,25.9561796 59.3001239,25.5077964 59.4389072,25.0561796" id="Stroke-139" stroke="#FEFEFE" stroke-width="0.5" stroke-linecap="round"></path>
                <path d="M58.4819738,18.6561677 C58.3854132,18.4976048 58.2971293,18.3155689 58.1494695,18.2383234 C57.9672639,18.1426347 57.7753422,18.2046707 57.5818612,18.2306587 C57.0624732,18.3005988 56.5541207,18.5646707 56.043729,18.7873054 C55.8634426,18.8652695 55.7392933,19.0434731 55.6290583,19.2863473 C55.3554499,19.8925749 55.3024316,20.5306587 55.2116286,21.1627545 C55.1258636,21.7598802 55.0438171,22.3555689 54.9606911,22.9517365 C54.877445,23.5495808 54.7727278,24.1464671 54.7189897,24.7408383 C54.6908012,25.0651497 54.7216286,25.3895808 54.8348624,25.6649102 C54.9789236,26.022515 55.1512933,26.4063473 55.3534108,26.7129341 C55.4029506,26.7918563 55.4563288,26.8656287 55.5107865,26.9334132 C55.6403337,27.0762874 55.889352,27.3287425 56.0271758,27.3967665 C56.0721574,27.437006 56.1630803,27.4546108 56.2342113,27.4777246 C56.4719542,27.5583234 56.7092174,27.5711377 56.9589554,27.4582036" id="Stroke-141" stroke="#FEFEFE" stroke-width="0.5" stroke-linecap="round"></path>
                <path d="M51.0239219,20.2532934 C50.9661055,20.6015569 50.7120492,23.7367665 50.6820614,24.08 C50.6461961,24.4917365 50.6210064,24.9028743 50.6395988,25.3052695 C50.6574715,25.7189222 50.7669868,25.9754491 51.0527102,26.0988024 C51.6501863,26.3559281 52.4504996,26.5834731 52.8561741,26.6347305 C53.6459317,26.7304192 54.8805878,26.800479 55.3155302,26.7637126" id="Stroke-143" stroke="#FEFEFE" stroke-width="0.5" stroke-linecap="round"></path>
                <path d="M51.3008339,17.7923473 C51.2504339,18.1854012 51.1894739,18.5806108 51.1525139,18.9724671 C51.1132739,19.3998922 51.0591539,19.8273174 51.0238739,20.2533054" id="Stroke-145" stroke="#FEFEFE" stroke-width="0.5" stroke-linecap="round"></path>
                <path d="M57.3597718,26.4632934 C57.800472,26.2997006 57.7923153,26.3797006 57.9240215,26.189521 C58.19739,25.7962275 58.4363324,25.2468862 58.6542835,24.8207784 C58.7364499,24.6600599 58.9084597,24.3374251 58.8841097,24.1170659 C58.8398477,23.7132335 58.8748734,23.4983832 58.8285723,23.0824551 C58.7969053,22.7986228 58.7591207,22.7668862 58.5382908,22.8122754 C58.1297376,22.8941916 57.7198649,22.9767066 57.3107119,23.1011377 C56.7147951,23.2801796 57.0344646,23.1413772 56.3761733,23.4426946 C56.2092015,23.5193413 56.0386311,23.5496407 55.86974,23.6656886 C55.7385136,23.7564671 55.6916127,23.8676048 55.681057,24.032994 C55.6489102,24.4963473 55.639434,24.9532335 55.6658233,25.4022156 C55.676259,25.5579042 55.744751,25.6371856 55.828117,25.6943114 C56.1872504,25.938982 56.5497425,26.1768263 56.911155,26.4152695 C56.9736494,26.4562275 57.0495785,26.578503 57.3597718,26.4632934 Z" id="Stroke-147" stroke="#FEFEFE" stroke-width="0.5" stroke-linecap="round"></path>
                <path d="M59.2039111,17.7709461 C59.3250617,17.8268743 59.35361,17.9960958 59.3596076,18.1719042 C59.3671645,18.3508263 59.3013114,18.5110659 59.1588095,18.5932216 C58.9914778,18.6884311 58.8604913,18.6472335 58.7513359,18.4528623 C58.6545354,18.6686707 58.5708095,18.8484311 58.6394215,19.0945389 L58.5395023,18.7333413 C58.5728487,18.6493892 58.7055146,18.3964551 58.7057545,18.3193293 C58.714271,17.9234012 58.9604105,17.6576527 59.2039111,17.7709461" id="Fill-149" fill="#FEFEFE"></path>
                <path d="M55.4926859,19.5749581 L55.4571804,19.6725629 C55.4275525,19.6432216 55.3176774,19.5702874 55.2587814,19.5737605 C55.2629797,19.7410659 55.169058,19.8786707 55.0825733,19.9493293 C54.9610629,20.0476527 54.8429111,20.1026228 54.7247594,20.0511257 C54.6146443,20.0002275 54.5898144,19.8240599 54.5966517,19.665497 C54.6259197,19.0931617 55.2355109,19.0263353 55.2536235,19.388491 C55.2605807,19.5308862 55.3525831,19.459988 55.4926859,19.5749581" id="Fill-151" fill="#FEFEFE"></path>
                <path d="M16.7807187,47.6822994 L0.614197307,45.9973892 L0.0704592411,9.08241916 L16.1285449,8.75331737 C16.1285449,8.75331737 16.0966379,21.5196647 16.233622,32.494515 L16.4717248,43.3638563 C16.5538913,45.4843353 16.6554898,47.0311617 16.7807187,47.6822994 C16.9256196,48.4358323 26.219786,49.849485 26.219786,49.849485 L43.8641043,52.9991856" id="Stroke-153" stroke="#202348" stroke-width="0.62112" stroke-linecap="round" stroke-linejoin="round"></path>
                <line x1="16.7807187" y1="47.6822994" x2="20.2029219" y2="45.9934371" id="Stroke-155" stroke="#202348" stroke-width="0.62112" stroke-linecap="round" stroke-linejoin="round"></line>
                <polygon id="Fill-157" fill="#FEFEFE" points="41.6508756 12.2826707 49.5629662 17.5862635 50.5651572 59.9678204 43.8640923 52.9990778"></polygon>
                <polygon id="Stroke-159" stroke="#202348" stroke-width="0.62112" stroke-linecap="round" stroke-linejoin="round" points="41.6508756 12.2826707 49.5629662 17.5862635 50.5651572 59.9678204 43.8640923 52.9990778"></polygon>
                <path d="M25.7139045,17.501018 L20.7364162,19.2001796 C20.7364162,19.2001796 19.1727344,19.3186228 19.2637772,20.0429341 C19.3545802,20.7672455 19.5306683,27.475988 19.5306683,27.475988 L19.5958017,41.7958683 L19.5928029,47.1060479 C19.5928029,47.1060479 21.1044259,47.6086826 22.8229645,48.6237725 C24.541623,49.6387425 27.1208103,50.6322754 27.7656671,50.7110778 C28.4105239,50.7897605 28.6018458,50.7588623 28.552306,50.4721557 C28.5027662,50.1853293 28.5091236,42.7909581 28.5091236,42.7909581 L28.508284,29.2708383 C28.508284,29.2708383 28.5123623,21.6188623 28.8074419,21.3383832 C29.1025214,21.0579042 33.780612,18.2949102 33.780612,18.2949102 L25.7139045,17.501018 Z" id="Fill-161" fill="#B17F48"></path>
                <path d="M33.780612,18.2948982 C33.780612,18.2948982 31.8263696,19.486515 30.9402913,19.9374132 C30.0543329,20.3883114 28.7250355,20.9867545 28.6914492,21.6107066 C28.6581028,22.2345389 28.5091236,28.9587305 28.5091236,28.9587305 L28.4979682,46.2962156 L28.4979682,50.3540599 C28.4979682,50.3540599 28.478896,50.7982515 28.9628984,50.4938204 C29.4469009,50.189509 33.7151187,47.0200479 33.7151187,47.0200479 L34.5899217,46.1683114 C34.5899217,46.1683114 34.2649743,44.4273533 34.2492607,43.5733413 C34.2335471,42.7193293 34.0849278,38.4013653 34.0849278,38.4013653 L33.942306,28.8026826 L33.8830502,19.109509 C33.8830502,19.109509 33.8486242,18.5042395 33.780612,18.2948982" id="Fill-163" fill="#946C3E"></path>
                <path d="M19.5136952,25.0679162 L19.5136952,26.5058802 C19.5136952,26.5058802 23.2379351,27.6377365 25.0190881,28.0098323 C26.8003611,28.3820479 27.7923562,28.5675569 28.5111028,28.5343832 C29.2298494,28.5013293 32.0500184,27.143006 33.942246,25.6468383 L33.942246,24.208994 C33.942246,24.208994 31.9583758,25.7588144 30.4919743,26.3735449 C29.0258127,26.9883952 29.0435655,27.4080359 26.9360257,26.9674371 C24.8286059,26.5270778 19.5136952,25.0679162 19.5136952,25.0679162" id="Fill-165" fill="#F9B200"></path>
                <path d="M19.6940896,41.260491 L25.0624984,43.5513892 C25.0624984,43.5513892 27.1250565,44.5788144 28.5096514,44.4218084 C29.8941263,44.2649222 34.1438717,40.8880359 34.1438717,40.8880359 L34.1830957,42.3501916 C34.1830957,42.3501916 30.666611,45.2622874 29.4746575,45.5638443 C28.282824,45.8652814 27.738966,45.8553413 26.9188607,45.5910299 C26.0989953,45.3267186 19.6940896,42.5483952 19.6940896,42.5483952 L19.6940896,41.260491 Z" id="Fill-167" fill="#F9B200"></path>
                <path d="M34.3247219,43.9374491 C34.1366387,42.7187665 34.1781417,41.487509 34.1222446,40.2609222 C33.8102519,33.3599641 33.9796228,26.4554132 33.9385995,19.5522994 C33.9385995,19.5522994 33.9065726,18.1222395 33.6466387,18.1478683 L25.6178357,17.5010419 C24.0138504,18.1263114 21.3160316,19.0009222 19.6897354,19.5511018 C19.3555518,19.664994 19.222646,19.5979281 19.2636693,19.9132575 C19.5254024,21.9702635 19.4901368,24.3666707 19.5351185,26.4236766 C19.6869765,33.3234371 19.5928149,40.2277485 19.5928149,47.1060719 C19.8192825,47.1630778 19.9583058,47.1743353 20.0758578,47.2301437 C22.4550867,48.3520599 24.6903743,49.7718204 27.2400536,50.5467904 C27.9940659,50.7768503 28.5074563,50.8106228 29.2054514,50.3497844 C31.0997182,49.0992455 32.901023,47.7416407 34.6157231,46.2598443 C34.3698235,45.4448743 34.4759802,44.6755329 34.3247219,43.9374491" id="Stroke-169" stroke="#212348" stroke-width="0.5" stroke-linecap="round" stroke-linejoin="round"></path>
                <path d="M28.5100282,45.8591018 C28.5105082,47.0892814 28.5111082,48.3194611 28.5119482,49.5496407 C28.5125482,49.9055689 28.4434282,50.2711976 28.6067482,50.6140719" id="Stroke-171" stroke="#212348" stroke-width="0.5" stroke-linecap="round" stroke-linejoin="round"></path>
                <path d="M28.5110797,28.5344192 C28.5090397,30.4188503 28.5090397,32.9568144 28.5090397,34.8417246 C28.5090397,38.0347784 28.5087997,41.1756168 28.5096397,44.3691497" id="Stroke-173" stroke="#212348" stroke-width="0.5" stroke-linecap="round" stroke-linejoin="round"></path>
                <path d="M19.2637293,19.9133054 C19.8773988,20.0420479 22.2045689,20.6160599 22.7943682,20.8198922 C22.7943682,20.8198922 23.7822849,21.0511497 24.9179814,21.177018 C26.0535579,21.3028862 27.5451491,21.5192934 28.6807256,21.4782156 C28.8289851,23.140012 28.5274282,24.7766587 28.5153131,26.4225269 C28.5136338,26.6473174 28.5123143,26.8718683 28.5111148,27.0966587" id="Stroke-175" stroke="#212348" stroke-width="0.5" stroke-linecap="round" stroke-linejoin="round"></path>
                <path d="M33.6466027,18.2948982 C32.6494497,19.1114251 31.4950409,19.6628024 30.3508279,20.2293892 C29.7827398,20.5113054 29.1005782,20.9828024 28.6807496,21.4782515" id="Stroke-177" stroke="#212348" stroke-width="0.5" stroke-linecap="round" stroke-linejoin="round"></path>
                <path d="M19.5136952,25.0679162 C19.5136952,25.0679162 26.7372668,27.291509 28.5111028,27.0965389 C30.2850588,26.9015689 33.942246,24.208994 33.942246,24.208994" id="Stroke-179" stroke="#212348" stroke-width="0.5" stroke-linecap="round" stroke-linejoin="round"></path>
                <path d="M19.5136952,26.5058563 C19.5136952,26.5058563 26.7372668,28.7293293 28.5111028,28.5343593 C30.2850588,28.3393892 33.942246,25.6468144 33.942246,25.6468144" id="Stroke-181" stroke="#212348" stroke-width="0.5" stroke-linecap="round" stroke-linejoin="round"></path>
                <path d="M25.0251217,33.0105868 C25.0392759,33.0387305 25.0738218,33.1801677 25.1033297,33.3213653 C25.1549087,33.5684311 25.2020494,33.8170539 25.2573469,34.0637605 C25.3086859,34.2971737 25.3874938,34.5245988 25.401648,34.7689102 C25.4096847,34.9102275 25.3318365,35.0935808 25.2615452,35.215018 L25.2574668,35.221006 L25.2114056,35.2939401 C25.1312783,35.4285509 25.0572685,35.5358563 24.9521914,35.6485509 C24.9128475,35.6917844 24.8637875,35.7166946 24.8021327,35.724479 C24.6783432,35.7406467 24.5559931,35.7445988 24.4320837,35.7375329 C24.4076137,35.7358563 24.3818242,35.7340599 24.3590335,35.7356168 C24.3024166,35.7393293 24.0695917,35.7195689 24.012375,35.721485" id="Stroke-183" stroke="#212348" stroke-width="0.5" stroke-linecap="round"></path>
                <path d="M27.0108752,34.2053892 C27.0169927,34.3792814 27.0220306,34.3628743 27.0004394,34.4479042 C26.984366,34.5074251 26.9004002,34.5603593 26.8488213,34.5869461 C26.628951,34.6984431 26.41088,34.8112575 26.1802142,34.9002395 C25.8871738,35.0147305 25.7121652,35.068024 25.5164051,35.1468263 L25.271825,35.2302994" id="Stroke-185" stroke="#212348" stroke-width="0.5" stroke-linecap="round" stroke-linejoin="bevel"></path>
                <path d="M25.3026284,31.2507904 C25.5490078,31.2533054 25.7634803,31.2851617 26.0103395,31.3160599 C26.1051009,31.3280359 26.2267312,31.3602515 26.3224521,31.3906707 C26.349681,31.3991737 26.3771498,31.4058802 26.4050984,31.4267186 C26.4636345,31.3831257 26.5047777,31.3248024 26.5612747,31.2831257 C26.629167,31.2337844 26.6958597,31.2243234 26.7701094,31.257018 C26.8449589,31.288994 26.9139307,31.3318683 26.9626308,31.3978563 C27.0079723,31.4591737 27.0078524,31.5346228 27.0047337,31.6051617 C26.999096,31.7104311 26.9643102,31.8058802 26.8843028,31.880491 C26.8240874,31.9355808 26.76867,31.9964192 26.704976,32.046479 C26.6795464,32.0674371 26.677987,32.0900719 26.6839846,32.1068383 C26.7606333,32.3396527 26.925566,33.0383353 27.0108512,34.2054012" id="Stroke-187" stroke="#212348" stroke-width="0.5" stroke-linecap="round"></path>
                <path d="M21.817247,31.6931018 C21.7386791,31.6056766 21.6374404,31.529509 21.5760255,31.4268743 C21.51593,31.3236407 21.4940989,31.232503 21.5751858,31.1304671 C21.6662286,31.0140599 21.7573914,30.909988 21.917646,30.8842395 C21.9993327,30.8711856 22.0535506,30.8838802 22.0999716,30.9467545 C22.1557488,31.021485 22.2108064,31.0710659 22.3232005,31.0740599 C22.4746987,31.078012 22.6272764,31.0907066 22.7786546,31.101485 C23.0465053,31.1195689 23.3136362,31.1408862 23.5795677,31.1564551 C23.8579741,31.1732216 25.0250977,31.2297485 25.3026644,31.2508263" id="Stroke-189" stroke="#212348" stroke-width="0.5" stroke-linecap="round"></path>
                <path d="M25.0251217,33.0105868 C24.987457,32.9438802 24.9543506,32.8701078 24.8905366,32.8237605 C24.8119687,32.7657964 24.722965,32.7589701 24.634801,32.7398084 C24.3978977,32.6886707 24.1587153,32.7036407 23.9202526,32.704479 C23.836047,32.7045988 23.7734326,32.7454371 23.7146565,32.8110659 C23.5687961,32.9735808 23.5220152,33.1783713 23.4570017,33.3757365 C23.3961865,33.5620838 23.3371706,33.7485509 23.277555,33.9351377 C23.2179393,34.1220838 23.1484876,34.3056766 23.1024264,34.4957365 C23.0783163,34.5998084 23.0795158,34.712024 23.1204191,34.8199281 C23.1722379,34.9595689 23.2364118,35.1127425 23.3155794,35.2436407 C23.3350115,35.2771737 23.3563628,35.3092695 23.3784338,35.3390898 C23.4315721,35.4057964 23.53461,35.5249581 23.5942257,35.5674731 C23.613178,35.5866347 23.6533616,35.6061557 23.6846688,35.624 C23.7889062,35.6849581 23.8955427,35.7231617 24.012375,35.721485" id="Stroke-191" stroke="#212348" stroke-width="0.5"></path>
                <path d="M21.6013591,32.4723713 C21.562375,32.5799162 21.3318291,33.586982 21.3055599,33.6969222 C21.2740127,33.8286587 21.2475035,33.9619521 21.2410262,34.098479 C21.2338291,34.2387186 21.2742526,34.3399162 21.3981621,34.4212335 C21.658096,34.5930898 22.010752,34.7837485 22.1918781,34.8589581 C22.5452539,35.0041078 23.0983481,35.2043473 23.2973469,35.2545269" id="Stroke-193" stroke="#212348" stroke-width="0.5" stroke-linecap="round"></path>
                <path d="M21.8173351,31.6931018 C21.7800151,31.8166946 21.7372951,31.9388503 21.7066951,32.0645988 C21.6732151,32.2011257 21.6330151,32.3356168 21.6013351,32.4723832" id="Stroke-195" stroke="#212348" stroke-width="0.5" stroke-linecap="round"></path>
                <path d="M24.2293905,35.4466108 C24.4348666,35.4565509 24.4282693,35.4820599 24.4947222,35.4370299 C24.6325459,35.3458922 24.7607736,35.1973892 24.874847,35.0868503 C24.9177895,35.0451737 25.0072729,34.9624192 25.0045141,34.8855329 C24.9994761,34.7449341 25.0232264,34.6777485 25.0177087,34.5333174 C25.0139902,34.4343952 24.9980367,34.4183473 24.8966781,34.4017006 C24.7094345,34.3705629 24.5208715,34.3390659 24.3321885,34.3218204 C24.0569009,34.2960719 24.2068397,34.2957126 23.8979657,34.3014611 C23.8198776,34.303018 23.7419094,34.2886467 23.6613023,34.303018 C23.5986879,34.314515 23.5733782,34.3446946 23.5624627,34.3982275 C23.5310355,34.5478084 23.5098042,34.6978683 23.5050061,34.8517605 C23.5039266,34.9051737 23.5319951,34.9412216 23.5675006,34.9722395 C23.7204382,35.1050539 23.875175,35.2363114 24.0293121,35.3674491 C24.0560612,35.3900838 24.0858091,35.4417006 24.2293905,35.4466108 Z" id="Stroke-197" stroke="#212348" stroke-width="0.5" stroke-linecap="round"></path>
                <path d="M25.3837082,32.8195499 C25.4362682,32.8556699 25.4428682,32.9162699 25.4391482,32.9756699 C25.4360282,33.0357899 25.4002682,33.0804299 25.3329482,33.0872699 C25.2538682,33.0950699 25.1962682,33.0624299 25.1535482,32.9820299 C25.1025482,33.0399899 25.0580282,33.0878699 25.0799882,33.1797899 L25.0481882,33.0450299 C25.0663082,33.0218699 25.1356682,32.9565899 25.1379482,32.9309099 C25.1570282,32.8001099 25.2779882,32.7474299 25.3837082,32.8195499" id="Fill-199" fill="#212348"></path>
                <path d="M23.6441968,32.8879863 L23.6244446,32.9154663 C23.6120392,32.9014263 23.5650673,32.8612263 23.5382091,32.8540263 C23.5339937,32.9104263 23.4862992,32.9428263 23.4445063,32.9539863 C23.3863334,32.9693463 23.3303285,32.9700663 23.2786595,32.9363463 C23.2306037,32.9037063 23.2259065,32.8413063 23.2349396,32.7894663 C23.2701082,32.6027463 23.547483,32.6681463 23.5427858,32.7915063 C23.5407383,32.8399863 23.5849401,32.8295463 23.6441968,32.8879863" id="Fill-201" fill="#212348"></path>
                <path d="M19.5958137,41.2219042 C19.5958137,41.2219042 26.6389789,44.5775928 28.4129349,44.382503 C30.1867709,44.1875329 34.0457158,40.8495689 34.0457158,40.8495689" id="Stroke-203" stroke="#212348" stroke-width="0.5" stroke-linecap="round" stroke-linejoin="round"></path>
                <path d="M19.5958137,42.5097964 C19.5958137,42.5097964 26.6389789,46.0153054 28.4129349,45.8204551 C30.1867709,45.6253653 34.0849398,42.3117126 34.0849398,42.3117126" id="Stroke-205" stroke="#212348" stroke-width="0.5" stroke-linecap="round" stroke-linejoin="round"></path>
                <polyline id="Stroke-207" stroke="#212348" stroke-width="0.5" stroke-linecap="round" stroke-linejoin="round" points="19.5306803 26.2023713 20.2816938 25.6587784 20.6855689 26.5761437 21.3238284 25.9803353 21.8644477 26.8907545 22.5058259 26.2142275 22.9456864 27.2483593 23.6752286 26.5265629 24.0576326 27.5500359 24.7359557 26.8507545 25.2254759 27.8206946 25.9917231 27.0153054 26.5013951 28.1323114 27.0242617 27.1771018 27.5701589 28.2385389 28.0757525 27.2945868 28.6816252 28.1732695 29.0876595 27.1742275 29.6024894 27.9572216 29.9541858 26.9428503 30.5665359 27.476024 30.8985603 26.5200958 31.5304624 26.9297964 31.8171454 25.8697964 32.3446901 26.3736287 32.6842715 25.3864431 33.1653951 25.7592575 33.3998994 25.0178204 33.9384796 25.4211737"></polyline>
                <polyline id="Stroke-209" stroke="#212348" stroke-width="0.5" stroke-linecap="round" stroke-linejoin="round" points="19.6940896 42.3687425 20.4451031 41.8252695 20.8043564 42.7843114 21.4541312 42.3116168 21.8741998 43.268982 22.562119 42.7942515 22.9880651 43.6708982 23.652354 43.2591617 24.0237224 44.1274251 24.7857714 43.7469461 25.2253919 44.7125749 26.0168289 44.2053892 26.4760015 45.1905389 27.0241777 44.5679042 27.5995829 45.434491 28.0757885 44.685509 28.6449562 45.4247904 29.0876955 44.5651497 29.7685376 44.9857485 30.0225939 44.1176048 30.6380627 44.4354491 30.9210272 43.5708982 31.514425 43.8844311 31.8203001 42.9177246 32.4749929 43.1615569 32.6843075 42.2817964 33.2369219 42.5665868 33.4633895 41.7123353 34.0849758 42.0398802"></polyline>
            </g>
        </g>
    </g>
</svg>